<svg width="24" height="24" viewBox="0 0 24 24" fill="none" xmlns="http://www.w3.org/2000/svg">
<path d="M12 3.19995C8.65118 3.19995 4.30466 4.03901 4.30466 4.03901L4.29373 4.05151C2.76851 4.29544 1.59998 5.60605 1.59998 7.19995V12V12.0015V16.8V16.8015C1.60146 17.5627 1.87427 18.2985 2.36941 18.8767C2.86456 19.4549 3.5496 19.8376 4.30154 19.9562L4.30466 19.9609C4.30466 19.9609 8.65118 20.8015 12 20.8015C15.3488 20.8015 19.6953 19.9609 19.6953 19.9609L19.6968 19.9593C20.4496 19.841 21.1354 19.458 21.631 18.8791C22.1265 18.3002 22.3992 17.5635 22.4 16.8015V16.8V12.0015V12V7.19995C22.3989 6.43845 22.1262 5.70231 21.631 5.1238C21.1359 4.54528 20.4506 4.16231 19.6984 4.0437L19.6953 4.03901C19.6953 4.03901 15.3488 3.19995 12 3.19995ZM9.59998 8.3187L16 12L9.59998 15.6812V8.3187Z" fill="#333333"/>
</svg>
