<svg width="50" height="50" viewBox="0 0 50 50" fill="none" xmlns="http://www.w3.org/2000/svg">
<g clip-path="url(#clip0_845_2472)">
<path d="M37 0C30.885 0 25.756 3.74272 24.377 8.76172C22.49 7.84772 20.2015 8.06016 18.5645 9.41016L13.6719 13H10C9.447 13 9 13.448 9 14V17.2988C8.986 17.3098 8.96712 17.3113 8.95312 17.3223L2.36328 22.748C2.13328 22.938 2 23.2225 2 23.5215V46.9883C2 47.5403 2.447 47.9883 3 47.9883H40.9961C41.5491 47.9883 41.9961 47.5403 41.9961 46.9883V23.5215C41.9961 23.2095 41.8496 22.9156 41.6016 22.7266L41.0703 22.3203C46.2493 20.8113 50 16.5132 50 11.4512C50 5.13717 44.168 0 37 0ZM37 2C43.065 2 48 6.24017 48 11.4512C48 16.6632 43.065 20.9023 37 20.9023C36.072 20.9023 35.1711 20.7961 34.2441 20.5781C33.8801 20.4911 33.4989 20.6183 33.2559 20.9023C32.8899 21.3303 31.6495 22.5988 29.6055 22.9238C30.0945 22.0568 30.3571 21.3062 30.4961 20.7832C30.6431 20.2412 30.6698 19.9589 30.6758 19.7129C30.6888 19.3689 30.5213 19.0426 30.2363 18.8496C27.5433 17.0276 26 14.3302 26 11.4512C26 6.24017 30.935 2 37 2ZM37 5.09961C36.4 5.09961 36 5.49961 36 6.09961V10H32.0996C31.4996 10 31.0996 10.4 31.0996 11C31.0996 11.6 31.4996 12 32.0996 12H36V15.9004C36 16.5004 36.4 16.9004 37 16.9004C37.6 16.9004 38 16.5004 38 15.9004V12H41.9004C42.5004 12 42.9004 11.6 42.9004 11C42.9004 10.4 42.5004 10 41.9004 10H38V6.09961C38 5.49961 37.6 5.09961 37 5.09961ZM21.8945 10.2051C22.6433 10.1863 23.3982 10.4091 24.0332 10.8711C24.0222 11.0641 24 11.2552 24 11.4512C24 11.9752 24.0548 12.49 24.1348 13H17.0527L19.793 10.9883C20.404 10.4843 21.1458 10.2238 21.8945 10.2051ZM24.6328 14.9453C25.3668 16.9363 26.7177 18.7327 28.5957 20.1387C28.5857 20.1777 28.5745 20.2187 28.5625 20.2637C28.4175 20.8077 28.1012 21.6661 27.4082 22.6621L26.873 23.4277C26.66 23.7337 26.6366 24.1329 26.8086 24.4629C26.9806 24.7929 27.3204 25 27.6934 25H28.627C30.488 25 31.9481 24.3878 32.9961 23.7188V29.6133L28.6133 33.0332L26.834 31.6484C24.031 29.4664 19.9651 29.4664 17.1621 31.6484L15.3848 33.0312L11 29.6113V15H24.3633C24.4583 15 24.5458 14.9703 24.6328 14.9453ZM9 19.875V28.0508L4 24.1504V23.9922L9 19.875ZM34.9961 22.7402C35.6641 22.8382 36.334 22.9023 37 22.9023C37.486 22.9023 37.9655 22.8741 38.4375 22.8281L39.9961 24.0156V24.1504L34.9961 28.0527V22.7402ZM4 26.6875L13.7559 34.2988L4 41.8926V26.6875ZM39.9961 26.6875V41.8926L30.2402 34.3008L39.9961 26.6875ZM21.998 32.0039C23.2793 32.0039 24.5605 32.4111 25.6055 33.2246L39.9961 44.4277V45.9883H4V44.4277L18.3906 33.2246C19.4356 32.4111 20.7168 32.0039 21.998 32.0039Z" fill="#DD8560"/>
</g>
<defs>
<clipPath id="clip0_845_2472">
<rect width="50" height="50" fill="white"/>
</clipPath>
</defs>
</svg>
