<svg width="50" height="50" viewBox="0 0 50 50" fill="none" xmlns="http://www.w3.org/2000/svg">
<g clip-path="url(#clip0_845_2479)">
<path d="M34.2185 5.46875C28.238 5.46875 23.3748 10.332 23.3748 16.3125C23.3748 16.6719 23.4646 17.0234 23.4998 17.375C16.1052 16.668 9.56616 13.1055 5.12476 7.65625C4.91773 7.39453 4.59741 7.25391 4.26148 7.27734C3.92945 7.30078 3.63257 7.49219 3.46851 7.78125C2.53491 9.38672 1.99976 11.2344 1.99976 13.2188C1.99976 15.6211 2.85913 17.8203 4.18726 19.625C3.92945 19.5117 3.6482 19.4492 3.40601 19.3125C3.09741 19.1484 2.72632 19.1562 2.42554 19.3359C2.12476 19.5156 1.94116 19.8398 1.93726 20.1875V20.3125C1.93726 23.9961 3.84351 27.1953 6.65601 29.1562C6.62476 29.1523 6.59351 29.1641 6.56226 29.1562C6.21851 29.0977 5.87085 29.2188 5.64038 29.4805C5.40991 29.7422 5.3357 30.1055 5.43726 30.4375C6.55445 33.9102 9.40601 36.5625 12.9373 37.5312C10.1248 39.2031 6.86304 40.1875 3.34351 40.1875C2.58179 40.1875 1.85132 40.1484 1.12476 40.0625C0.656008 40 0.206789 40.2734 0.0505394 40.7188C-0.109617 41.1641 0.0661645 41.6602 0.468508 41.9062C4.98023 44.8008 10.3357 46.5 16.0935 46.5C25.4255 46.5 32.7459 42.6016 37.656 37.0312C42.5662 31.4609 45.1248 24.2266 45.1248 17.4688C45.1248 17.1836 45.1013 16.9062 45.0935 16.625C46.9255 15.2227 48.5623 13.5781 49.8435 11.6562C50.0974 11.2852 50.0701 10.7891 49.7771 10.4453C49.488 10.1016 48.9998 9.99609 48.5935 10.1875C48.0779 10.418 47.4763 10.4414 46.9373 10.625C47.6482 9.67578 48.2576 8.65234 48.6248 7.5C48.7498 7.10547 48.613 6.67188 48.2888 6.41406C47.9646 6.16016 47.5115 6.12891 47.156 6.34375C45.449 7.35547 43.5584 8.06641 41.5623 8.5C39.6248 6.6875 37.074 5.46875 34.2185 5.46875ZM34.2185 7.46875C36.7693 7.46875 39.074 8.55859 40.6873 10.2812C40.9294 10.5312 41.2849 10.6367 41.6248 10.5625C42.9294 10.3047 44.1677 9.92578 45.3748 9.4375C44.6794 10.375 43.8201 11.1758 42.8123 11.7812C42.3552 12.0039 42.1404 12.5312 42.3084 13.0117C42.4724 13.4883 42.9724 13.7656 43.4685 13.6562C44.4685 13.5352 45.3591 13.1289 46.3123 12.875C45.4568 13.8008 44.5193 14.6367 43.4998 15.375C43.2224 15.5781 43.0701 15.9062 43.0935 16.25C43.1091 16.6562 43.1248 17.0586 43.1248 17.4688C43.1248 23.7188 40.7263 30.5039 36.156 35.6875C31.5857 40.8711 24.8748 44.5 16.0935 44.5C12.1052 44.5 8.3396 43.6172 4.93726 42.0625C9.15601 41.7383 13.0466 40.2461 16.1873 37.7812C16.5154 37.5195 16.6443 37.082 16.5115 36.6836C16.3787 36.2852 16.0115 36.0117 15.5935 36C12.2966 35.9414 9.53491 34.0234 8.06226 31.3125C8.11695 31.3125 8.16382 31.3125 8.21851 31.3125C9.20679 31.3125 10.1834 31.1875 11.0935 30.9375C11.531 30.8086 11.8318 30.4023 11.8162 29.9453C11.8005 29.4883 11.4763 29.0977 11.031 29C7.47241 28.2812 4.80445 25.3828 4.18726 21.7812C5.19507 22.1289 6.22632 22.4023 7.34351 22.4375C7.80054 22.4648 8.2146 22.1797 8.35523 21.7461C8.49585 21.3125 8.32398 20.8359 7.93726 20.5938C5.56226 19.0039 3.99976 16.2969 3.99976 13.2188C3.99976 12.0781 4.29663 11.0312 4.68726 10.0312C9.68726 15.5195 16.6873 19.1641 24.5935 19.5625C24.906 19.5781 25.2107 19.4492 25.4138 19.2109C25.6169 18.9687 25.6951 18.6484 25.6248 18.3438C25.4724 17.6953 25.3748 17.0078 25.3748 16.3125C25.3748 11.4141 29.3201 7.46875 34.2185 7.46875Z" fill="#DD8560"/>
</g>
<defs>
<clipPath id="clip0_845_2479">
<rect width="50" height="50" fill="white"/>
</clipPath>
</defs>
</svg>
