<svg width="24" height="24" viewBox="0 0 24 24" fill="none" xmlns="http://www.w3.org/2000/svg">
<g clip-path="url(#clip0_696_1464)">
<path d="M4.5 4.5C3.26591 4.5 2.25 5.51591 2.25 6.75V7.125H3.75V6.75C3.75 6.33409 4.08409 6 4.5 6H6C6.41591 6 6.75 6.33409 6.75 6.75C6.75 7.16591 6.41591 7.5 6 7.5H4.5V9H6C6.41591 9 6.75 9.37529 6.75 9.67529V9.75C6.75 10.1659 6.41591 10.5 6 10.5H4.5C4.08409 10.5 3.75 10.1659 3.75 9.75V9.375H2.25V9.75C2.25 10.9841 3.26591 12 4.5 12H6C7.23409 12 8.25 10.9841 8.25 9.75V9.67529C8.25 9.11361 7.99371 8.62153 7.63037 8.23535C7.99326 7.83522 8.25 7.32724 8.25 6.75C8.25 5.51591 7.23409 4.5 6 4.5H4.5ZM12.75 4.5C10.9829 4.5 9.46757 5.72332 9.09229 7.41211L9.07471 7.49268V7.57471C9.07471 7.74971 9 7.85 9 8.25V9.375C9 10.8179 10.1821 12 11.625 12H12.375C13.8179 12 15 10.8179 15 9.375C15 7.93214 13.8179 6.75 12.375 6.75H11.625C11.4065 6.75 11.197 6.78542 10.9937 6.83643C11.4029 6.32438 12.0303 6 12.75 6H13.5V4.5H12.75ZM18 4.5C16.7659 4.5 15.75 5.51591 15.75 6.75V7.875V8.625V9.75C15.75 10.9841 16.7659 12 18 12H19.5C20.7341 12 21.75 10.9841 21.75 9.75V6.75V6.67529H21.7427C21.7018 5.47592 20.7086 4.5 19.5 4.5H18ZM18 6H19.5C19.9159 6 20.25 6.33409 20.25 6.75V9.75C20.25 10.1659 19.9159 10.5 19.5 10.5H18C17.5841 10.5 17.25 10.1659 17.25 9.75V8.625V7.875V6.75C17.25 6.33409 17.5841 6 18 6ZM11.625 8.25H12.375C13.0321 8.25 13.5 8.71786 13.5 9.375C13.5 10.0321 13.0321 10.5 12.375 10.5H11.625C10.9679 10.5 10.5 10.0321 10.5 9.375C10.5 8.71786 10.9679 8.25 11.625 8.25ZM22.9263 11.707L21.813 12.7134C22.2888 13.2396 22.5 13.7438 22.5 14.25C22.5 15.2655 21.5411 16.394 19.6377 17.2822C17.7343 18.1705 15.0119 18.75 12 18.75C8.98808 18.75 6.26571 18.1705 4.3623 17.2822C2.4589 16.394 1.5 15.2655 1.5 14.25C1.5 13.7475 1.70833 13.2476 2.17676 12.7251L1.05908 11.7246C0.410012 12.4486 0 13.317 0 14.25C0 16.134 1.55968 17.6297 3.72803 18.6416C5.89637 19.6535 8.79892 20.25 12 20.25C15.2011 20.25 18.1036 19.6535 20.272 18.6416C22.4403 17.6297 24 16.134 24 14.25C24 13.3102 23.5844 12.4348 22.9263 11.707Z" fill="#FCFCFC"/>
</g>
<defs>
<clipPath id="clip0_696_1464">
<rect width="24" height="24" fill="white"/>
</clipPath>
</defs>
</svg>
