<svg width="40" height="40" viewBox="0 0 40 40" fill="none" xmlns="http://www.w3.org/2000/svg">
<path d="M20 5C11.7285 5 5 11.7285 5 20C5 28.2715 11.7285 35 20 35C28.2715 35 35 28.2715 35 20C35 11.7285 28.2715 5 20 5ZM20 7.5C26.9189 7.5 32.5 13.0811 32.5 20C32.5 26.9189 26.9189 32.5 20 32.5C13.0811 32.5 7.5 26.9189 7.5 20C7.5 13.0811 13.0811 7.5 20 7.5ZM14.375 15C13.3398 15 12.5 15.8398 12.5 16.875C12.5 17.9102 13.3398 18.75 14.375 18.75C15.4102 18.75 16.25 17.9102 16.25 16.875C16.25 15.8398 15.4102 15 14.375 15ZM25.625 15C24.5898 15 23.75 15.8398 23.75 16.875C23.75 17.9102 24.5898 18.75 25.625 18.75C26.6602 18.75 27.5 17.9102 27.5 16.875C27.5 15.8398 26.6602 15 25.625 15ZM13.5156 23.75L11.3672 25C13.0957 27.9834 16.3086 30 20 30C23.6914 30 26.9043 27.9834 28.6328 25L26.4844 23.75C25.1855 25.9912 22.7832 27.5 20 27.5C17.2168 27.5 14.8145 25.9912 13.5156 23.75Z" fill="#E0CFBA"/>
</svg>
