<svg width="24" height="24" viewBox="0 0 24 24" fill="none" xmlns="http://www.w3.org/2000/svg">
<path d="M22.4 5.5496C21.6344 5.8896 20.812 6.1184 19.9488 6.2216C20.8304 5.6936 21.5064 4.8576 21.8248 3.8608C21.0008 4.3496 20.0872 4.7048 19.1144 4.8968C18.336 4.0672 17.2272 3.5488 16 3.5488C13.6432 3.5488 11.7328 5.46 11.7328 7.816C11.7328 8.1504 11.7712 8.4768 11.8432 8.788C8.29678 8.6104 5.15278 6.9112 3.04718 4.3288C2.68078 4.9592 2.47038 5.692 2.47038 6.4752C2.47038 7.9552 3.22318 9.2616 4.36798 10.0264C3.66878 10.004 3.01038 9.812 2.43518 9.4928C2.43518 9.5112 2.43518 9.528 2.43518 9.5464C2.43518 11.6144 3.90558 13.3392 5.85838 13.7304C5.50078 13.828 5.12318 13.88 4.73358 13.88C4.45918 13.88 4.19118 13.8528 3.93118 13.804C4.47438 15.4992 6.05038 16.7336 7.91758 16.768C6.45758 17.9128 4.61758 18.5952 2.61758 18.5952C2.27358 18.5952 1.93358 18.5752 1.59918 18.5352C3.48798 19.7456 5.73038 20.452 8.14078 20.452C15.9904 20.452 20.2816 13.9496 20.2816 8.3104C20.2816 8.1256 20.2776 7.9416 20.2696 7.7584C21.104 7.156 21.828 6.4048 22.4 5.5496Z" fill="#555555"/>
</svg>
