<svg width="24" height="24" viewBox="0 0 24 24" fill="none" xmlns="http://www.w3.org/2000/svg">
<path d="M7.99846 2.39999C4.91126 2.39999 2.40002 4.91355 2.40002 8.00155V16.0016C2.40002 19.0888 4.91359 21.6 8.00159 21.6H16.0016C19.0888 21.6 21.6 19.0864 21.6 15.9984V7.99843C21.6 4.91123 19.0865 2.39999 15.9985 2.39999H7.99846ZM17.6 5.59999C18.0416 5.59999 18.4 5.95839 18.4 6.39999C18.4 6.84159 18.0416 7.19999 17.6 7.19999C17.1584 7.19999 16.8 6.84159 16.8 6.39999C16.8 5.95839 17.1584 5.59999 17.6 5.59999ZM12 7.19999C14.6472 7.19999 16.8 9.35279 16.8 12C16.8 14.6472 14.6472 16.8 12 16.8C9.35282 16.8 7.20002 14.6472 7.20002 12C7.20002 9.35279 9.35282 7.19999 12 7.19999ZM12 8.79999C11.1513 8.79999 10.3374 9.13713 9.73728 9.73725C9.13717 10.3374 8.80002 11.1513 8.80002 12C8.80002 12.8487 9.13717 13.6626 9.73728 14.2627C10.3374 14.8628 11.1513 15.2 12 15.2C12.8487 15.2 13.6626 14.8628 14.2628 14.2627C14.8629 13.6626 15.2 12.8487 15.2 12C15.2 11.1513 14.8629 10.3374 14.2628 9.73725C13.6626 9.13713 12.8487 8.79999 12 8.79999Z" fill="#555555"/>
</svg>
