<svg width="46" height="46" viewBox="0 0 46 46" fill="none" xmlns="http://www.w3.org/2000/svg">
<path d="M23 0C10.317 0 0 10.317 0 23C0 35.683 10.317 46 23 46C35.683 46 46 35.683 46 23C46 18.44 44.6603 14.1893 42.3633 10.6113L40.9941 12.2285C42.8891 15.3825 44 19.06 44 23C44 34.579 34.579 44 23 44C11.421 44 2 34.579 2 23C2 11.421 11.421 2 23 2C28.443 2 33.3939 4.09977 37.1289 7.50977L38.4375 5.96484C34.3525 2.25984 28.935 0 23 0ZM41.2363 5.75391L21.9141 28.5547L13.7812 20.9688L12.418 22.4316L22.084 31.4473L42.7637 7.04688L41.2363 5.75391Z" fill="#A8715A"/>
</svg>
