<svg width="40" height="40" viewBox="0 0 40 40" fill="none" xmlns="http://www.w3.org/2000/svg">
<path d="M20 5C11.7307 5 5 11.7307 5 20C5 28.2693 11.7307 35 20 35C28.2693 35 35 28.2693 35 20C35 11.7307 28.2693 5 20 5ZM20 7.5C26.9182 7.5 32.5 13.0818 32.5 20C32.5 26.9182 26.9182 32.5 20 32.5C13.0818 32.5 7.5 26.9182 7.5 20C7.5 13.0818 13.0818 7.5 20 7.5ZM12.0093 16.5063L10.4907 18.4937C10.4907 18.4937 12.3934 20 15 20C17.6066 20 19.5093 18.4937 19.5093 18.4937L17.9907 16.5063C17.9907 16.5063 16.6209 17.5 15 17.5C13.3791 17.5 12.0093 16.5063 12.0093 16.5063ZM22.0093 16.5063L20.4907 18.4937C20.4907 18.4937 22.3934 20 25 20C27.6066 20 29.5093 18.4937 29.5093 18.4937L27.9907 16.5063C27.9907 16.5063 26.6209 17.5 25 17.5C23.3791 17.5 22.0093 16.5063 22.0093 16.5063ZM20 23.75C17.3934 23.75 15.4907 25.2563 15.4907 25.2563L17.0093 27.2437C17.0093 27.2437 18.3791 26.25 20 26.25C21.6209 26.25 22.9907 27.2437 22.9907 27.2437L24.5093 25.2563C24.5093 25.2563 22.6066 23.75 20 23.75Z" fill="#E0CFBA"/>
</svg>
