<svg width="79" height="32" viewBox="0 0 79 32" fill="none" xmlns="http://www.w3.org/2000/svg">
<path d="M2.20094 23.712V31.0208H0V14.8667H10.7555L11.0462 16.4032C11.0047 16.4032 11.0047 16.4032 10.9632 16.3617C10.8801 16.3617 10.8386 16.3617 10.8386 16.3201C10.6725 16.071 10.0496 15.8218 9.0114 15.5727C7.9317 15.3235 6.51977 15.1989 4.7341 15.1989H2.20094V23.2967H9.21904V23.6705H2.20094V23.712Z" fill="black"/>
<path d="M18.4383 26.4528C18.4383 26.0375 18.4383 25.6222 18.4383 25.2069C18.4383 24.7501 18.3968 24.3349 18.3968 23.8781C18.2307 24.2518 17.94 24.501 17.5247 24.7501C17.1094 24.9578 16.6526 25.1654 16.1543 25.3315C15.656 25.4976 15.1161 25.6637 14.5763 25.7883C14.0364 25.9544 13.4966 26.1205 13.0398 26.3697C12.583 26.6189 12.2092 26.9096 11.9185 27.2833C11.6278 27.657 11.4617 28.1554 11.4617 28.7367C11.4617 29.4012 11.6278 29.858 11.96 30.1902C12.2923 30.5224 12.7491 30.6885 13.3304 30.6885C13.9118 30.6885 14.6593 30.5224 15.4483 30.1487C16.2789 29.7749 17.1925 29.2351 18.1891 28.5291C17.94 28.7783 17.6077 29.069 17.1925 29.4012C16.7772 29.7334 16.2789 30.0241 15.739 30.3148C15.1992 30.6055 14.6593 30.8546 14.1195 31.0207C13.5381 31.2284 13.0398 31.3114 12.583 31.3114C12.2092 31.3114 11.7939 31.2699 11.4202 31.1869C11.0464 31.1038 10.6727 30.9792 10.3405 30.7716C10.0083 30.5639 9.7591 30.3148 9.55147 29.9826C9.34383 29.6503 9.21925 29.1935 9.21925 28.6537C9.21925 28.1969 9.34383 27.7816 9.593 27.4494C9.84216 27.1172 10.1744 26.8265 10.5896 26.5773C11.0049 26.3282 11.5032 26.1205 12.0431 25.9544C12.583 25.7883 13.1228 25.6222 13.7042 25.4976C14.2856 25.3315 14.8254 25.2069 15.3653 25.0824C15.9051 24.9578 16.4035 24.7917 16.8187 24.6256C17.2755 24.4594 17.6077 24.2518 17.8984 24.0442C18.1476 23.795 18.3137 23.5458 18.3552 23.2136C18.2722 22.7153 18.1891 22.2585 18.023 21.8017C17.8984 21.3449 17.6908 20.9712 17.4416 20.6389C17.1925 20.3067 16.8603 20.0576 16.4865 19.8499C16.1128 19.6423 15.6144 19.6008 15.0746 19.6008C14.244 19.6423 13.6211 19.7253 13.2059 19.8915C12.7906 20.0576 12.4999 20.2652 12.2923 20.5144C12.0846 20.7635 12.0431 21.0127 12.0431 21.3034C12.0431 21.5941 12.0431 21.8432 12.0431 22.0924C12.0431 22.3831 11.96 22.5907 11.7939 22.7568C11.6278 22.9229 11.4202 22.9645 11.171 22.9645C10.9219 22.9645 10.6727 22.8814 10.4235 22.6738C10.1744 22.4661 10.0913 22.217 10.0913 21.8848C10.0913 21.428 10.299 21.0127 10.6727 20.6805C11.0464 20.3483 11.5448 20.0576 12.0846 19.8499C12.6245 19.6423 13.2059 19.4762 13.7872 19.3931C14.3686 19.3101 14.8254 19.2685 15.1992 19.2685C16.3619 19.2685 17.3171 19.4347 18.023 19.7669C18.729 20.0991 19.2688 20.5559 19.6426 21.0957C20.0163 21.6356 20.2655 22.3 20.3901 23.0475C20.5147 23.795 20.5562 24.5425 20.5562 25.373V31.0623H18.4798V26.4528H18.4383Z" fill="black"/>
<path d="M25.1238 30.1902C25.3314 30.4809 25.6636 30.6885 26.1204 30.8131C26.5772 30.9377 27.034 31.0208 27.5739 31.0208C28.0722 31.0208 28.6121 30.9792 29.1104 30.8547C29.6502 30.7301 30.107 30.564 30.5223 30.3563C30.9376 30.1487 31.3113 29.8995 31.5605 29.5673C31.8512 29.2766 31.9758 28.9029 31.9758 28.4876C31.9758 27.9893 31.7681 27.574 31.3113 27.2833C30.8545 26.9926 30.2732 26.7435 29.6087 26.5358C28.9443 26.3282 28.1968 26.1205 27.4078 25.9544C26.6188 25.7883 25.8713 25.5392 25.2068 25.29C24.5424 24.9993 23.961 24.6671 23.5042 24.2103C23.0474 23.7535 22.8398 23.1721 22.8398 22.4662C22.8398 21.8017 23.0059 21.2619 23.3381 20.8466C23.6703 20.4313 24.1271 20.0991 24.6255 19.8499C25.1653 19.6008 25.7052 19.4347 26.3281 19.3516C26.951 19.2686 27.4908 19.227 28.0307 19.227C28.2799 19.227 28.6121 19.2686 29.0273 19.3101C29.4426 19.3516 29.8579 19.4762 30.2316 19.6423C30.6054 19.8084 30.9791 19.9745 31.2698 20.2237C31.5605 20.4728 31.7266 20.8051 31.7266 21.1788C31.7266 21.428 31.6436 21.6356 31.4359 21.8017C31.2283 21.9678 31.0206 22.0509 30.7715 22.0509C30.4393 22.0509 30.2316 21.9678 30.0655 21.8432C29.8994 21.7187 29.8164 21.5526 29.7333 21.3449C29.6502 21.1788 29.6087 20.9712 29.5672 20.7635C29.5257 20.5559 29.4841 20.3898 29.3596 20.2652C29.1519 20.016 28.9028 19.8084 28.6536 19.7254C28.3629 19.6423 28.0307 19.5592 27.6569 19.5592C27.2417 19.5592 26.8264 19.6008 26.4111 19.6838C25.9543 19.7669 25.5806 19.8915 25.2068 20.0576C24.8331 20.2237 24.5424 20.4728 24.3348 20.722C24.0856 21.0127 24.0025 21.3449 24.0025 21.7187C24.0025 22.0924 24.1271 22.4246 24.4178 22.6738C24.667 22.923 25.0407 23.1306 25.456 23.3382C25.8713 23.5043 26.3696 23.6704 26.951 23.795C27.4908 23.9196 28.0722 24.0442 28.6536 24.2103C29.235 24.3764 29.8164 24.5425 30.3562 24.7086C30.8961 24.8747 31.3944 25.1239 31.8512 25.3731C32.2665 25.6222 32.6402 25.9544 32.8894 26.3282C33.1385 26.7019 33.3046 27.2003 33.3046 27.7401C33.3046 28.363 33.1385 28.9029 32.8063 29.3597C32.4741 29.8165 32.0588 30.1487 31.519 30.4394C30.9791 30.7301 30.3977 30.9377 29.7333 31.0623C29.0689 31.1869 28.3629 31.2699 27.6569 31.2699C27.4078 31.2699 27.1586 31.2699 26.8264 31.2284C26.4942 31.1869 26.162 31.1869 25.7882 31.1038C25.4145 31.0623 25.0823 30.9792 24.7085 30.8547C24.3348 30.7716 24.0441 30.647 23.7534 30.4809C23.4627 30.3148 23.2551 30.1487 23.0474 29.9411C22.8813 29.7334 22.7983 29.4843 22.7983 29.152C22.7983 28.9029 22.8813 28.7368 23.089 28.5707C23.2966 28.4045 23.5042 28.3215 23.7534 28.3215C24.0856 28.3215 24.2932 28.4045 24.4593 28.5291C24.6255 28.6537 24.7085 28.8198 24.7916 29.0275C24.8331 29.2351 24.9161 29.4012 24.9161 29.6088C24.9577 29.8995 25.0407 30.0656 25.1238 30.1902Z" fill="black"/>
<path d="M34.883 14.8667L36.9593 13.7454V31.0623H34.883V14.8667ZM37.2085 20.6389C37.3746 20.3898 37.6238 20.1821 37.8729 20.016C38.1221 19.8499 38.4128 19.6838 38.745 19.6008C39.0772 19.5177 39.3679 19.3931 39.7001 19.3516C40.0324 19.3101 40.3231 19.2685 40.6553 19.2685C41.6104 19.2685 42.3994 19.3931 43.0223 19.6008C43.6452 19.8084 44.1851 20.1406 44.5588 20.5144C44.9741 20.8881 45.2648 21.3449 45.4724 21.8432C45.6801 22.3416 45.8462 22.8814 45.9292 23.4213C46.0123 24.0026 46.0538 24.5425 46.0953 25.1654C46.0953 25.7468 46.0953 26.3282 46.0953 26.868V31.0623H44.019V26.6604C44.019 26.2451 44.019 25.8298 44.019 25.3315C44.019 24.8332 43.9775 24.3349 43.9359 23.795C43.8944 23.2552 43.7698 22.7568 43.6452 22.2585C43.5206 21.7602 43.313 21.3449 43.0638 20.9296C42.8147 20.5559 42.4409 20.2237 42.0257 20.016C41.6104 19.7669 41.0705 19.6423 40.4061 19.6423C39.8663 19.6423 39.451 19.6838 39.0772 19.7669C38.7035 19.8499 38.4128 19.933 38.1636 20.016C37.9145 20.0991 37.7068 20.2237 37.5823 20.3483C37.4161 20.4728 37.2916 20.5559 37.2085 20.6389Z" fill="black"/>
<path d="M50.8014 18.8948V31.0207H48.725V20.016L50.8014 18.8948Z" fill="black"/>
<path d="M48.1558 15.3228C47.8285 15.4949 47.0199 15.5714 47.0199 15.5714V15.8773C47.0199 15.8773 47.8285 15.9538 48.1558 16.1259C48.4639 16.298 48.7334 16.5274 48.926 16.8333C49.1378 17.1393 49.2725 17.4834 49.3688 17.8849C49.4651 18.2865 49.5036 18.6325 49.5036 18.6325H49.7731C49.7731 18.6325 49.8681 18.0836 49.9079 17.8849C50.0042 17.4834 50.1582 17.1393 50.3507 16.8333C50.5432 16.5274 50.7935 16.298 51.1208 16.1259C51.4481 15.9538 52.2568 15.8773 52.2568 15.8773V15.5714C52.2568 15.5714 51.4481 15.4949 51.1208 15.3228C50.8128 15.1507 50.5432 14.9213 50.3507 14.6154C50.1389 14.3095 50.0042 13.9653 49.9079 13.5638C49.8637 13.3271 49.7731 12.7241 49.7731 12.7241H49.5036C49.5036 12.7241 49.4141 13.4109 49.3688 13.5638C49.2725 13.9653 49.1185 14.3095 48.926 14.6154C48.7334 14.9213 48.4831 15.1507 48.1558 15.3228Z" fill="black"/>
<path d="M53.2988 25.29C53.2988 24.501 53.4234 23.7535 53.6726 23.006C53.9218 22.2585 54.337 21.6356 54.8769 21.0542C55.4167 20.4728 56.0812 20.0576 56.8702 19.7254C57.6592 19.3931 58.6143 19.227 59.694 19.227C60.7737 19.227 61.7289 19.3931 62.5179 19.7254C63.3069 20.0576 63.9713 20.5144 64.5112 21.0958C65.051 21.6771 65.4248 22.3 65.6739 23.0475C65.9231 23.7535 66.0477 24.5425 66.0477 25.29C66.0477 26.079 65.9231 26.8265 65.6739 27.574C65.4248 28.3215 65.0095 28.9444 64.4697 29.5258C63.9298 30.1072 63.2654 30.5224 62.4764 30.8546C61.6873 31.1869 60.7322 31.353 59.694 31.353C58.6559 31.353 57.6592 31.1869 56.8702 30.8546C56.0812 30.5224 55.4167 30.0656 54.8769 29.4842C54.337 28.9029 53.9633 28.28 53.6726 27.5325C53.4234 26.8265 53.2988 26.079 53.2988 25.29ZM58.6143 19.7254C57.9084 19.7254 57.327 19.8915 56.8702 20.2237C56.4134 20.5559 56.0396 20.9712 55.7905 21.4695C55.5413 21.9678 55.4167 22.5907 55.3337 23.2552C55.2922 23.9196 55.3337 24.6256 55.4583 25.3315C55.5828 26.0375 55.7905 26.7019 56.1227 27.4079C56.4134 28.0723 56.7871 28.6537 57.2439 29.1936C57.7007 29.6919 58.1991 30.1487 58.7804 30.4394C59.3618 30.7716 59.9847 30.9377 60.6907 30.9377C61.3966 30.9377 61.9365 30.7716 62.3933 30.4394C62.8501 30.1072 63.1823 29.6919 63.4315 29.1936C63.6806 28.6952 63.8052 28.0723 63.8883 27.4079C63.9298 26.7435 63.8883 26.0375 63.7637 25.3315C63.6391 24.6256 63.39 23.9611 63.0993 23.2552C62.8086 22.5907 62.4348 22.0094 61.978 21.4695C61.5212 20.9712 61.0229 20.5144 60.4415 20.2237C59.8601 19.933 59.3203 19.7254 58.6143 19.7254Z" fill="black"/>
<path d="M67.8291 20.016L69.9054 18.8948V31.0207H67.8291V20.016ZM70.1131 20.6389C70.2792 20.3898 70.5283 20.1821 70.7775 20.016C71.0267 19.8499 71.3174 19.6838 71.6496 19.6008C71.9818 19.5177 72.2725 19.3931 72.6047 19.3516C72.9369 19.3101 73.2276 19.2685 73.5598 19.2685C74.515 19.2685 75.304 19.3931 75.9269 19.6008C76.5498 19.8084 77.0896 20.1406 77.4634 20.5143C77.8787 20.8881 78.1693 21.3449 78.377 21.8432C78.5846 22.3415 78.7507 22.8814 78.8338 23.4213C78.9168 24.0026 78.9584 24.5425 78.9999 25.1654C78.9999 25.7468 78.9999 26.3282 78.9999 26.868V31.0623H76.9235V26.6604C76.9235 26.2451 76.9235 25.8298 76.9235 25.3315C76.9235 24.8332 76.882 24.3349 76.8405 23.795C76.799 23.2551 76.6744 22.7568 76.5498 22.2585C76.4252 21.7602 76.2176 21.3449 75.9684 20.9296C75.7192 20.5559 75.3455 20.2237 74.9302 20.016C74.515 19.7669 73.9751 19.6423 73.3107 19.6423C72.7708 19.6423 72.3555 19.6838 71.9818 19.7669C71.6081 19.8499 71.3174 19.933 71.0682 20.016C70.819 20.0991 70.6114 20.2237 70.4868 20.3482C70.3207 20.4728 70.1961 20.5559 70.1131 20.6389Z" fill="black"/>
<path d="M22.6687 0C24.3298 0 25.7832 0.249163 27.029 0.705963C28.2748 1.20429 29.313 1.8272 30.1436 2.61621C30.9741 3.40523 31.597 4.2773 32.0123 5.31548C32.4276 6.31214 32.6352 7.35032 32.6352 8.43002C32.6352 9.4682 32.4276 10.5064 32.0123 11.503C31.597 12.4997 30.9741 13.4133 30.1436 14.2023C29.313 14.9913 28.2748 15.6142 27.029 16.1126C25.7832 16.6109 24.3298 16.86 22.6687 16.86C21.0076 16.86 19.5541 16.6109 18.3083 16.1126C17.0625 15.6142 16.0243 14.9913 15.1938 14.2023C14.3632 13.4133 13.7403 12.4997 13.325 11.503C12.9098 10.5064 12.7021 9.4682 12.7021 8.43002C12.7021 7.35032 12.9098 6.35366 13.325 5.31548C13.7403 4.31883 14.3632 3.40523 15.1938 2.61621C16.0243 1.8272 17.0625 1.20429 18.3083 0.705963C19.5541 0.249163 21.0076 0 22.6687 0ZM23.9145 16.3202C25.1603 16.3202 26.24 16.1126 27.1121 15.6558C27.9841 15.199 28.6901 14.6176 29.23 13.8701C29.7698 13.1226 30.102 12.2921 30.2681 11.3369C30.4342 10.3818 30.4342 9.42668 30.3097 8.43002C30.1436 7.43337 29.8529 6.47824 29.3545 5.52312C28.8562 4.56799 28.2748 3.73745 27.5273 2.98996C26.7799 2.24247 25.9078 1.66109 24.8696 1.20429C23.8314 0.74749 22.7102 0.539854 21.4644 0.539854C20.177 0.539854 19.0973 0.74749 18.2253 1.20429C17.3532 1.66109 16.6472 2.24247 16.1489 2.98996C15.609 3.73745 15.2768 4.56799 15.1107 5.52312C14.9446 6.47824 14.9446 7.43337 15.0692 8.43002C15.2353 9.42668 15.526 10.3818 15.9828 11.3369C16.4396 12.2921 17.0625 13.1226 17.81 13.8701C18.5575 14.6176 19.4711 15.199 20.4677 15.6558C21.5059 16.071 22.6687 16.3202 23.9145 16.3202Z" fill="black"/>
<path d="M34.883 3.9035L36.9593 2.78227V9.67579C37.0009 10.3817 37.1255 11.0877 37.3331 11.7106C37.5407 12.3335 37.8314 12.9149 38.2467 13.3717C38.6204 13.8285 39.0772 14.2438 39.6586 14.4929C40.1985 14.7836 40.8214 14.9082 41.5273 14.9082C42.3994 14.9082 43.0638 14.6175 43.6037 14.0777C44.1436 13.5378 44.4758 12.8319 44.6834 12.0013C44.891 11.1708 44.9326 10.2572 44.8495 9.30204C44.7665 8.34692 44.5173 7.43332 44.1436 6.60277C43.7698 5.77223 43.2715 5.06627 42.6486 4.52641C42.0257 3.98656 41.2782 3.69587 40.4476 3.69587C40.1569 3.69587 39.8247 3.73739 39.534 3.86198C39.2433 3.98656 38.9527 4.11114 38.662 4.27725C38.3713 4.44336 38.1221 4.65099 37.9145 4.85863C37.6653 5.06627 37.4992 5.31543 37.3746 5.52306C37.7068 4.8171 38.2467 4.23572 38.9527 3.77892C39.7001 3.32212 40.4892 3.11449 41.3197 3.11449C42.3579 3.11449 43.23 3.2806 43.9774 3.61281C44.7249 3.94503 45.3063 4.40183 45.8046 4.98321C46.2614 5.56459 46.6352 6.1875 46.8428 6.93499C47.0505 7.68248 47.175 8.38844 47.175 9.17746C47.175 9.96648 47.0505 10.6724 46.8428 11.4199C46.6352 12.1259 46.2614 12.7903 45.8046 13.3717C45.3478 13.9531 44.7249 14.4099 43.9774 14.7421C43.23 15.0743 42.3579 15.282 41.3612 15.282C40.2815 15.282 39.3679 15.1159 38.662 14.8252C37.956 14.5345 37.4161 14.1192 37.0009 13.6209V20.722H34.9245V3.9035H34.883Z" fill="black"/>
<path d="M52.0251 7.1011C52.0251 7.89012 52.1497 8.67913 52.3988 9.50968C52.648 10.3402 53.0218 11.0462 53.4786 11.7521C53.9354 12.4166 54.5167 12.9564 55.1812 13.3717C55.8456 13.787 56.5931 13.9946 57.3821 13.9946C58.1296 13.9946 58.794 13.8285 59.3754 13.5378C59.9568 13.2056 60.4551 12.8319 60.8704 12.4166C61.2857 12.0013 61.6179 11.5445 61.8255 11.1292C62.0747 10.714 62.1993 10.3817 62.1993 10.1741C62.1577 10.714 61.9501 11.2953 61.6179 11.8352C61.2857 12.3751 60.8704 12.8734 60.3305 13.3302C59.7907 13.787 59.2093 14.1192 58.5033 14.4099C57.7974 14.6591 57.0499 14.8252 56.2609 14.8252C55.1812 14.8252 54.226 14.6591 53.437 14.3268C52.648 13.9946 51.9836 13.5378 51.4437 12.9564C50.9039 12.3751 50.5301 11.7521 50.2394 11.0047C49.9903 10.2987 49.8657 9.50968 49.8657 8.76219C49.8657 7.72401 50.0318 6.85194 50.364 6.10445C50.6962 5.35696 51.153 4.73405 51.6929 4.23572C52.2327 3.7374 52.8556 3.36365 53.5616 3.15601C54.2676 2.90685 54.9735 2.78227 55.6795 2.78227C56.2194 2.78227 56.7592 2.86532 57.2575 3.03143C57.7974 3.19754 58.2542 3.4467 58.711 3.77892C59.1678 4.11114 59.5415 4.48488 59.8737 4.90016C60.206 5.35696 60.4551 5.81376 60.6628 6.35361C60.7458 6.60277 60.7043 6.81041 60.5797 6.97652C60.4551 7.14263 60.2475 7.22568 59.9568 7.22568H52.0251V7.1011ZM55.2642 3.07296C54.7244 3.07296 54.2676 3.15601 53.8523 3.36365C53.437 3.57129 53.1048 3.82045 52.8556 4.15267C52.6065 4.48489 52.3988 4.90016 52.2327 5.31543C52.1082 5.77223 52.0251 6.22903 51.9836 6.72735H58.794C58.711 6.43666 58.5864 6.10445 58.4203 5.68917C58.2542 5.2739 58.005 4.85863 57.7143 4.48488C57.4236 4.11114 57.0914 3.77892 56.6761 3.48823C56.2609 3.19754 55.7626 3.07296 55.2642 3.07296Z" fill="black"/>
<path d="M63.327 3.77888L65.4034 2.65764V14.7836H63.327V3.77888ZM65.6526 4.40179C65.8187 4.15262 66.0678 3.94499 66.317 3.77888C66.5662 3.61277 66.8568 3.44666 67.1891 3.36361C67.5213 3.23902 67.812 3.15597 68.1442 3.11444C68.4764 3.07292 68.7671 3.03139 69.0993 3.03139C70.0544 3.03139 70.8435 3.15597 71.4664 3.36361C72.0893 3.57124 72.6291 3.90346 73.0029 4.2772C73.4181 4.65095 73.7088 5.10775 73.9165 5.60607C74.1241 6.1044 74.2902 6.64425 74.3733 7.18411C74.4563 7.76549 74.4978 8.30534 74.5394 8.92825C74.5394 9.50963 74.5394 10.091 74.5394 10.6309V14.8251H72.463V10.4232C72.463 10.008 72.463 9.59269 72.463 9.05283C72.463 8.55451 72.4215 8.05618 72.38 7.51633C72.3384 6.97647 72.2139 6.47815 72.0893 5.97982C71.9647 5.48149 71.7571 5.06622 71.5079 4.65095C71.2587 4.2772 70.885 3.94499 70.4697 3.69582C70.0544 3.44666 69.5146 3.32208 68.8501 3.32208C68.3103 3.32208 67.895 3.36361 67.5213 3.44666C67.1475 3.52971 66.8568 3.61277 66.6077 3.69582C66.3585 3.77888 66.1509 3.90346 66.0263 4.02804C65.8602 4.19415 65.7356 4.31873 65.6526 4.40179Z" fill="black"/>
</svg>
