<svg width="24" height="24" viewBox="0 0 24 24" fill="none" xmlns="http://www.w3.org/2000/svg">
<path d="M7.68 1.43994C4.23959 1.43994 1.44 4.23953 1.44 7.67994V16.3199C1.44 19.7603 4.23959 22.5599 7.68 22.5599H16.32C19.7604 22.5599 22.56 19.7603 22.56 16.3199V7.67994C22.56 4.23953 19.7604 1.43994 16.32 1.43994H7.68ZM7.68 2.39994H16.32C19.2415 2.39994 21.6 4.75843 21.6 7.67994V16.3199C21.6 19.2415 19.2415 21.5999 16.32 21.5999H7.68C4.75849 21.5999 2.4 19.2415 2.4 16.3199V7.67994C2.4 4.75843 4.75849 2.39994 7.68 2.39994ZM17.76 5.27994C17.5054 5.27994 17.2612 5.38108 17.0812 5.56112C16.9011 5.74115 16.8 5.98533 16.8 6.23994C16.8 6.49455 16.9011 6.73873 17.0812 6.91876C17.2612 7.0988 17.5054 7.19994 17.76 7.19994C18.0146 7.19994 18.2588 7.0988 18.4388 6.91876C18.6189 6.73873 18.72 6.49455 18.72 6.23994C18.72 5.98533 18.6189 5.74115 18.4388 5.56112C18.2588 5.38108 18.0146 5.27994 17.76 5.27994ZM12 6.71994C9.08962 6.71994 6.72 9.08956 6.72 11.9999C6.72 14.9103 9.08962 17.2799 12 17.2799C14.9104 17.2799 17.28 14.9103 17.28 11.9999C17.28 9.08956 14.9104 6.71994 12 6.71994ZM12 7.67994C14.3916 7.67994 16.32 9.60839 16.32 11.9999C16.32 14.3915 14.3916 16.3199 12 16.3199C9.60845 16.3199 7.68 14.3915 7.68 11.9999C7.68 9.60839 9.60845 7.67994 12 7.67994Z" fill="#333333"/>
</svg>
