<svg width="79" height="32" viewBox="0 0 79 32" fill="none" xmlns="http://www.w3.org/2000/svg">
<path d="M2.20095 23.712V31.0208H0V14.8667H10.7556L11.0463 16.4032C11.0047 16.4032 11.0047 16.4032 10.9632 16.3617C10.8802 16.3617 10.8386 16.3617 10.8386 16.3202C10.6725 16.071 10.0496 15.8218 9.01143 15.5727C7.93172 15.3235 6.51979 15.1989 4.73412 15.1989H2.20095V23.2968H9.21907V23.6705H2.20095V23.712Z" fill="white"/>
<path d="M18.4381 26.4528C18.4381 26.0376 18.4381 25.6223 18.4381 25.207C18.4381 24.7502 18.3966 24.3349 18.3966 23.8781C18.2305 24.2519 17.9398 24.501 17.5245 24.7502C17.1092 24.9578 16.6524 25.1655 16.1541 25.3316C15.6558 25.4977 15.1159 25.6638 14.5761 25.7884C14.0362 25.9545 13.4963 26.1206 13.0395 26.3698C12.5827 26.6189 12.209 26.9096 11.9183 27.2834C11.6276 27.6571 11.4615 28.1555 11.4615 28.7368C11.4615 29.4013 11.6276 29.8581 11.9598 30.1903C12.2921 30.5225 12.7489 30.6886 13.3302 30.6886C13.9116 30.6886 14.6591 30.5225 15.4481 30.1488C16.2787 29.775 17.1923 29.2352 18.1889 28.5292C17.9398 28.7784 17.6076 29.0691 17.1923 29.4013C16.777 29.7335 16.2787 30.0242 15.7388 30.3149C15.199 30.6056 14.6591 30.8547 14.1193 31.0208C13.5379 31.2285 13.0395 31.3115 12.5827 31.3115C12.209 31.3115 11.7937 31.27 11.42 31.1869C11.0462 31.1039 10.6725 30.9793 10.3403 30.7717C10.0081 30.564 9.75889 30.3149 9.55125 29.9827C9.34362 29.6504 9.21903 29.1936 9.21903 28.6538C9.21903 28.197 9.34362 27.7817 9.59278 27.4495C9.84194 27.1173 10.1742 26.8266 10.5894 26.5774C11.0047 26.3283 11.503 26.1206 12.0429 25.9545C12.5827 25.7884 13.1226 25.6223 13.704 25.4977C14.2854 25.3316 14.8252 25.207 15.3651 25.0824C15.9049 24.9578 16.4033 24.7917 16.8185 24.6256C17.2753 24.4595 17.6076 24.2519 17.8982 24.0442C18.1474 23.7951 18.3135 23.5459 18.355 23.2137C18.272 22.7154 18.1889 22.2586 18.0228 21.8018C17.8982 21.345 17.6906 20.9712 17.4414 20.639C17.1923 20.3068 16.8601 20.0576 16.4863 19.85C16.1126 19.6424 15.6142 19.6008 15.0744 19.6008C14.2438 19.6423 13.6209 19.7254 13.2057 19.8915C12.7904 20.0576 12.4997 20.2653 12.2921 20.5144C12.0844 20.7636 12.0429 21.0128 12.0429 21.3034C12.0429 21.5941 12.0429 21.8433 12.0429 22.0925C12.0429 22.3832 11.9598 22.5908 11.7937 22.7569C11.6276 22.923 11.42 22.9645 11.1708 22.9645C10.9217 22.9645 10.6725 22.8815 10.4233 22.6738C10.1742 22.4662 10.0911 22.217 10.0911 21.8848C10.0911 21.428 10.2987 21.0128 10.6725 20.6805C11.0462 20.3483 11.5446 20.0576 12.0844 19.85C12.6243 19.6424 13.2057 19.4762 13.787 19.3932C14.3684 19.3101 14.8252 19.2686 15.199 19.2686C16.3617 19.2686 17.3169 19.4347 18.0228 19.7669C18.7288 20.0992 19.2686 20.556 19.6424 21.0958C20.0161 21.6357 20.2653 22.3001 20.3899 23.0476C20.5145 23.7951 20.556 24.5426 20.556 25.3731V31.0624H18.4796V26.4528H18.4381Z" fill="white"/>
<path d="M25.1241 30.1903C25.3317 30.481 25.664 30.6886 26.1208 30.8132C26.5776 30.9378 27.0344 31.0209 27.5742 31.0209C28.0725 31.0209 28.6124 30.9793 29.1107 30.8547C29.6506 30.7302 30.1074 30.5641 30.5227 30.3564C30.9379 30.1488 31.3117 29.8996 31.5608 29.5674C31.8515 29.2767 31.9761 28.903 31.9761 28.4877C31.9761 27.9894 31.7685 27.5741 31.3117 27.2834C30.8549 26.9927 30.2735 26.7435 29.6091 26.5359C28.9446 26.3283 28.1971 26.1206 27.4081 25.9545C26.6191 25.7884 25.8716 25.5392 25.2072 25.2901C24.5427 24.9994 23.9613 24.6672 23.5045 24.2104C23.0477 23.7536 22.8401 23.1722 22.8401 22.4662C22.8401 21.8018 23.0062 21.2619 23.3384 20.8467C23.6707 20.4314 24.1275 20.0992 24.6258 19.85C25.1656 19.6008 25.7055 19.4347 26.3284 19.3517C26.9513 19.2686 27.4912 19.2271 28.031 19.2271C28.2802 19.2271 28.6124 19.2686 29.0277 19.3101C29.443 19.3517 29.8582 19.4763 30.232 19.6424C30.6057 19.8085 30.9795 19.9746 31.2702 20.2237C31.5608 20.4729 31.727 20.8051 31.727 21.1789C31.727 21.428 31.6439 21.6357 31.4363 21.8018C31.2286 21.9679 31.021 22.051 30.7718 22.051C30.4396 22.051 30.232 21.9679 30.0659 21.8433C29.8998 21.7187 29.8167 21.5526 29.7336 21.345C29.6506 21.1789 29.6091 20.9712 29.5675 20.7636C29.526 20.556 29.4845 20.3899 29.3599 20.2653C29.1523 20.0161 28.9031 19.8085 28.6539 19.7254C28.3632 19.6424 28.031 19.5593 27.6573 19.5593C27.242 19.5593 26.8267 19.6008 26.4115 19.6839C25.9547 19.7669 25.5809 19.8915 25.2072 20.0576C24.8334 20.2237 24.5427 20.4729 24.3351 20.7221C24.0859 21.0128 24.0029 21.345 24.0029 21.7187C24.0029 22.0925 24.1275 22.4247 24.4181 22.6739C24.6673 22.923 25.0411 23.1307 25.4563 23.3383C25.8716 23.5044 26.3699 23.6705 26.9513 23.7951C27.4912 23.9197 28.0725 24.0443 28.6539 24.2104C29.2353 24.3765 29.8167 24.5426 30.3566 24.7087C30.8964 24.8748 31.3947 25.124 31.8515 25.3731C32.2668 25.6223 32.6406 25.9545 32.8897 26.3283C33.1389 26.702 33.305 27.2003 33.305 27.7402C33.305 28.3631 33.1389 28.903 32.8067 29.3598C32.4744 29.8166 32.0592 30.1488 31.5193 30.4395C30.9795 30.7302 30.3981 30.9378 29.7336 31.0624C29.0692 31.187 28.3632 31.27 27.6573 31.27C27.4081 31.27 27.1589 31.27 26.8267 31.2285C26.4945 31.187 26.1623 31.187 25.7885 31.1039C25.4148 31.0624 25.0826 30.9793 24.7088 30.8547C24.3351 30.7717 24.0444 30.6471 23.7537 30.481C23.463 30.3149 23.2554 30.1488 23.0477 29.9411C22.8816 29.7335 22.7986 29.4843 22.7986 29.1521C22.7986 28.903 22.8816 28.7369 23.0893 28.5707C23.2969 28.4046 23.5045 28.3216 23.7537 28.3216C24.0859 28.3216 24.2936 28.4046 24.4597 28.5292C24.6258 28.6538 24.7088 28.8199 24.7919 29.0275C24.8334 29.2352 24.9165 29.4013 24.9165 29.6089C24.958 29.8996 25.0411 30.0657 25.1241 30.1903Z" fill="white"/>
<path d="M34.8829 14.8667L36.9592 13.7455V31.0624H34.8829V14.8667ZM37.2084 20.639C37.3745 20.3898 37.6237 20.1822 37.8728 20.0161C38.122 19.85 38.4127 19.6839 38.7449 19.6008C39.0771 19.5178 39.3678 19.3932 39.7 19.3517C40.0322 19.3101 40.3229 19.2686 40.6552 19.2686C41.6103 19.2686 42.3993 19.3932 43.0222 19.6008C43.6451 19.8085 44.185 20.1407 44.5587 20.5144C44.974 20.8882 45.2647 21.345 45.4723 21.8433C45.68 22.3416 45.8461 22.8815 45.9291 23.4213C46.0122 24.0027 46.0537 24.5426 46.0952 25.1655C46.0952 25.7469 46.0952 26.3283 46.0952 26.8681V31.0624H44.0189V26.6605C44.0189 26.2452 44.0189 25.8299 44.0189 25.3316C44.0189 24.8333 43.9773 24.3349 43.9358 23.7951C43.8943 23.2552 43.7697 22.7569 43.6451 22.2586C43.5205 21.7602 43.3129 21.345 43.0637 20.9297C42.8146 20.556 42.4408 20.2237 42.0256 20.0161C41.6103 19.7669 41.0704 19.6424 40.406 19.6424C39.8661 19.6424 39.4509 19.6839 39.0771 19.7669C38.7034 19.85 38.4127 19.933 38.1635 20.0161C37.9143 20.0992 37.7067 20.2237 37.5821 20.3483C37.416 20.4729 37.2914 20.556 37.2084 20.639Z" fill="white"/>
<path d="M50.8013 18.8948V31.0208H48.7249V20.0161L50.8013 18.8948Z" fill="white"/>
<path d="M48.1557 15.3229C47.8284 15.495 47.0198 15.5714 47.0198 15.5714V15.8774C47.0198 15.8774 47.8284 15.9539 48.1557 16.1259C48.4638 16.298 48.7333 16.5275 48.9259 16.8334C49.1377 17.1393 49.2724 17.4835 49.3687 17.885C49.465 18.2865 49.5035 18.6326 49.5035 18.6326H49.773C49.773 18.6326 49.868 18.0837 49.9078 17.885C50.0041 17.4835 50.1581 17.1393 50.3506 16.8334C50.5432 16.5275 50.7934 16.298 51.1208 16.1259C51.4481 15.9539 52.2567 15.8774 52.2567 15.8774V15.5714C52.2567 15.5714 51.4481 15.495 51.1208 15.3229C50.8127 15.1508 50.5432 14.9214 50.3506 14.6154C50.1388 14.3095 50.0041 13.9653 49.9078 13.5638C49.8636 13.3271 49.773 12.7241 49.773 12.7241H49.5035C49.5035 12.7241 49.414 13.4109 49.3687 13.5638C49.2724 13.9653 49.1184 14.3095 48.9259 14.6154C48.7333 14.9214 48.4831 15.1508 48.1557 15.3229Z" fill="white"/>
<path d="M53.299 25.2901C53.299 24.5011 53.4236 23.7536 53.6728 23.0061C53.9219 22.2586 54.3372 21.6357 54.877 21.0543C55.4169 20.4729 56.0813 20.0576 56.8704 19.7254C57.6594 19.3932 58.6145 19.2271 59.6942 19.2271C60.7739 19.2271 61.7291 19.3932 62.5181 19.7254C63.3071 20.0576 63.9715 20.5144 64.5114 21.0958C65.0512 21.6772 65.425 22.3001 65.6742 23.0476C65.9233 23.7536 66.0479 24.5426 66.0479 25.2901C66.0479 26.0791 65.9233 26.8266 65.6742 27.5741C65.425 28.3216 65.0097 28.9445 64.4699 29.5259C63.93 30.1073 63.2656 30.5225 62.4766 30.8547C61.6875 31.187 60.7324 31.3531 59.6942 31.3531C58.656 31.3531 57.6594 31.187 56.8704 30.8547C56.0813 30.5225 55.4169 30.0657 54.877 29.4843C54.3372 28.903 53.9634 28.28 53.6728 27.5326C53.4236 26.8266 53.299 26.0791 53.299 25.2901ZM58.6145 19.7254C57.9085 19.7254 57.3272 19.8915 56.8704 20.2237C56.4136 20.556 56.0398 20.9712 55.7906 21.4696C55.5415 21.9679 55.4169 22.5908 55.3339 23.2552C55.2923 23.9197 55.3339 24.6256 55.4584 25.3316C55.583 26.0376 55.7906 26.702 56.1229 27.408C56.4136 28.0724 56.7873 28.6538 57.2441 29.1937C57.7009 29.692 58.1992 30.1488 58.7806 30.4395C59.362 30.7717 59.9849 30.9378 60.6909 30.9378C61.3968 30.9378 61.9367 30.7717 62.3935 30.4395C62.8503 30.1073 63.1825 29.692 63.4317 29.1937C63.6808 28.6953 63.8054 28.0724 63.8885 27.408C63.93 26.7435 63.8885 26.0376 63.7639 25.3316C63.6393 24.6256 63.3902 23.9612 63.0995 23.2552C62.8088 22.5908 62.435 22.0094 61.9782 21.4696C61.5214 20.9712 61.0231 20.5144 60.4417 20.2237C59.8603 19.9331 59.3205 19.7254 58.6145 19.7254Z" fill="white"/>
<path d="M67.829 20.0161L69.9054 18.8948V31.0208H67.829V20.0161ZM70.113 20.639C70.2792 20.3898 70.5283 20.1822 70.7775 20.0161C71.0266 19.85 71.3173 19.6839 71.6496 19.6008C71.9818 19.5178 72.2725 19.3932 72.6047 19.3516C72.9369 19.3101 73.2276 19.2686 73.5598 19.2686C74.5149 19.2686 75.304 19.3932 75.9269 19.6008C76.5498 19.8084 77.0896 20.1407 77.4634 20.5144C77.8787 20.8882 78.1693 21.345 78.377 21.8433C78.5846 22.3416 78.7507 22.8815 78.8338 23.4213C78.9168 24.0027 78.9584 24.5426 78.9999 25.1655C78.9999 25.7469 78.9999 26.3282 78.9999 26.8681V31.0624H76.9235V26.6605C76.9235 26.2452 76.9235 25.8299 76.9235 25.3316C76.9235 24.8333 76.882 24.3349 76.8405 23.7951C76.7989 23.2552 76.6744 22.7569 76.5498 22.2586C76.4252 21.7602 76.2176 21.345 75.9684 20.9297C75.7192 20.5559 75.3455 20.2237 74.9302 20.0161C74.5149 19.7669 73.9751 19.6423 73.3106 19.6423C72.7708 19.6423 72.3555 19.6839 71.9818 19.7669C71.608 19.85 71.3173 19.933 71.0682 20.0161C70.819 20.0991 70.6114 20.2237 70.4868 20.3483C70.3207 20.4729 70.1961 20.5559 70.113 20.639Z" fill="white"/>
<path d="M22.6687 0C24.3298 0 25.7833 0.249164 27.0291 0.705965C28.2749 1.20429 29.3131 1.8272 30.1437 2.61622C30.9742 3.40524 31.5971 4.27732 32.0124 5.3155C32.4277 6.31216 32.6353 7.35034 32.6353 8.43005C32.6353 9.46823 32.4277 10.5064 32.0124 11.5031C31.5971 12.4997 30.9742 13.4133 30.1437 14.2023C29.3131 14.9914 28.2749 15.6143 27.0291 16.1126C25.7833 16.6109 24.3298 16.8601 22.6687 16.8601C21.0076 16.8601 19.5542 16.6109 18.3084 16.1126C17.0625 15.6143 16.0244 14.9914 15.1938 14.2023C14.3633 13.4133 13.7404 12.4997 13.3251 11.5031C12.9098 10.5064 12.7022 9.46823 12.7022 8.43005C12.7022 7.35034 12.9098 6.35368 13.3251 5.3155C13.7404 4.31884 14.3633 3.40524 15.1938 2.61622C16.0244 1.8272 17.0625 1.20429 18.3084 0.705965C19.5542 0.249164 21.0076 0 22.6687 0ZM23.9146 16.3202C25.1604 16.3202 26.2401 16.1126 27.1122 15.6558C27.9842 15.199 28.6902 14.6176 29.2301 13.8701C29.7699 13.1226 30.1021 12.2921 30.2682 11.337C30.4343 10.3818 30.4343 9.42671 30.3098 8.43005C30.1437 7.43339 29.853 6.47826 29.3546 5.52314C28.8563 4.56801 28.2749 3.73746 27.5274 2.98997C26.7799 2.24248 25.9079 1.66109 24.8697 1.20429C23.8315 0.747492 22.7103 0.539855 21.4644 0.539855C20.1771 0.539855 19.0974 0.747492 18.2253 1.20429C17.3532 1.66109 16.6473 2.24248 16.1489 2.98997C15.6091 3.73746 15.2769 4.56801 15.1108 5.52314C14.9446 6.47826 14.9447 7.43339 15.0692 8.43005C15.2353 9.42671 15.526 10.3818 15.9828 11.337C16.4396 12.2921 17.0625 13.1226 17.81 13.8701C18.5575 14.6176 19.4711 15.199 20.4678 15.6558C21.506 16.0711 22.6687 16.3202 23.9146 16.3202Z" fill="white"/>
<path d="M34.8829 3.90349L36.9592 2.78225V9.67578C37.0007 10.3817 37.1253 11.0877 37.333 11.7106C37.5406 12.3335 37.8313 12.9149 38.2466 13.3717C38.6203 13.8285 39.0771 14.2438 39.6585 14.493C40.1984 14.7836 40.8213 14.9082 41.5272 14.9082C42.3993 14.9082 43.0637 14.6175 43.6036 14.0777C44.1434 13.5378 44.4757 12.8319 44.6833 12.0013C44.8909 11.1708 44.9325 10.2572 44.8494 9.30204C44.7664 8.34691 44.5172 7.43331 44.1434 6.60276C43.7697 5.77222 43.2714 5.06625 42.6485 4.5264C42.0256 3.98654 41.2781 3.69585 40.4475 3.69585C40.1568 3.69585 39.8246 3.73738 39.5339 3.86196C39.2432 3.98654 38.9525 4.11112 38.6618 4.27723C38.3711 4.44334 38.122 4.65098 37.9143 4.85861C37.6652 5.06625 37.4991 5.31541 37.3745 5.52305C37.7067 4.81709 38.2466 4.2357 38.9525 3.7789C39.7 3.3221 40.489 3.11447 41.3196 3.11447C42.3578 3.11447 43.2298 3.28058 43.9773 3.61279C44.7248 3.94501 45.3062 4.40181 45.8045 4.9832C46.2613 5.56458 46.6351 6.18749 46.8427 6.93498C47.0504 7.68247 47.1749 8.38844 47.1749 9.17746C47.1749 9.96648 47.0504 10.6724 46.8427 11.4199C46.6351 12.1259 46.2613 12.7903 45.8045 13.3717C45.3477 13.9531 44.7248 14.4099 43.9773 14.7421C43.2298 15.0743 42.3578 15.282 41.3611 15.282C40.2814 15.282 39.3678 15.1159 38.6618 14.8252C37.9559 14.5345 37.416 14.1192 37.0007 13.6209V20.7221H34.9244V3.90349H34.8829Z" fill="white"/>
<path d="M52.0255 7.10109C52.0255 7.89011 52.1501 8.67913 52.3993 9.50968C52.6484 10.3402 53.0222 11.0462 53.479 11.7522C53.9358 12.4166 54.5172 12.9564 55.1816 13.3717C55.846 13.787 56.5935 13.9946 57.3825 13.9946C58.13 13.9946 58.7945 13.8285 59.3758 13.5378C59.9572 13.2056 60.4556 12.8319 60.8708 12.4166C61.2861 12.0013 61.6183 11.5445 61.826 11.1292C62.0751 10.714 62.1997 10.3818 62.1997 10.1741C62.1582 10.714 61.9505 11.2954 61.6183 11.8352C61.2861 12.3751 60.8708 12.8734 60.331 13.3302C59.7911 13.787 59.2097 14.1192 58.5038 14.4099C57.7978 14.6591 57.0503 14.8252 56.2613 14.8252C55.1816 14.8252 54.2265 14.6591 53.4374 14.3268C52.6484 13.9946 51.984 13.5378 51.4441 12.9564C50.9043 12.3751 50.5305 11.7522 50.2398 11.0047C49.9907 10.2987 49.8661 9.50968 49.8661 8.76218C49.8661 7.724 50.0322 6.85193 50.3644 6.10443C50.6966 5.35694 51.1534 4.73403 51.6933 4.2357C52.2331 3.73738 52.8561 3.36363 53.562 3.15599C54.268 2.90683 54.974 2.78225 55.6799 2.78225C56.2198 2.78225 56.7596 2.8653 57.258 3.03141C57.7978 3.19752 58.2546 3.44668 58.7114 3.7789C59.1682 4.11112 59.542 4.48487 59.8742 4.90014C60.2064 5.35694 60.4556 5.81374 60.6632 6.3536C60.7463 6.60276 60.7047 6.8104 60.5801 6.97651C60.4556 7.14262 60.2479 7.22567 59.9572 7.22567H52.0255V7.10109ZM55.2646 3.07294C54.7248 3.07294 54.268 3.15599 53.8527 3.36363C53.4374 3.57127 53.1052 3.82043 52.8561 4.15265C52.6069 4.48487 52.3993 4.90014 52.2331 5.31541C52.1086 5.77222 52.0255 6.22902 51.984 6.72734H58.7945C58.7114 6.43665 58.5868 6.10443 58.4207 5.68916C58.2546 5.27389 58.0054 4.85861 57.7148 4.48487C57.4241 4.11112 57.0918 3.7789 56.6766 3.48821C56.2613 3.19752 55.763 3.07294 55.2646 3.07294Z" fill="white"/>
<path d="M63.3272 3.77889L65.4036 2.65765V14.7836H63.3272V3.77889ZM65.6528 4.4018C65.8189 4.15264 66.068 3.945 66.3172 3.77889C66.5664 3.61278 66.857 3.44667 67.1893 3.36362C67.5215 3.23903 67.8122 3.15598 68.1444 3.11445C68.4766 3.07292 68.7673 3.0314 69.0995 3.0314C70.0547 3.0314 70.8437 3.15598 71.4666 3.36362C72.0895 3.57125 72.6293 3.90347 73.0031 4.27722C73.4184 4.65096 73.7091 5.10776 73.9167 5.60609C74.1243 6.10442 74.2904 6.64428 74.3735 7.18413C74.4566 7.76551 74.4981 8.30537 74.5396 8.92828C74.5396 9.50966 74.5396 10.091 74.5396 10.6309V14.8252H72.4632V10.4233C72.4632 10.008 72.4632 9.59272 72.4632 9.05286C72.4632 8.55453 72.4217 8.05621 72.3802 7.51635C72.3387 6.97649 72.2141 6.47817 72.0895 5.97984C71.9649 5.48151 71.7573 5.06624 71.5081 4.65096C71.2589 4.27722 70.8852 3.945 70.4699 3.69583C70.0547 3.44667 69.5148 3.32209 68.8504 3.32209C68.3105 3.32209 67.8952 3.36362 67.5215 3.44667C67.1477 3.52973 66.8571 3.61278 66.6079 3.69583C66.3587 3.77889 66.1511 3.90347 66.0265 4.02805C65.8604 4.19416 65.7358 4.31874 65.6528 4.4018Z" fill="white"/>
</svg>
