<svg width="50" height="50" viewBox="0 0 50 50" fill="none" xmlns="http://www.w3.org/2000/svg">
<path d="M22.75 1.99999C22.4336 2.06249 22.168 2.26952 22.0312 2.56249L21.25 4.24999C20.8438 4.43358 15.7656 6.71483 12.5938 8.09374C12.2344 8.2539 12.0039 8.60937 12 8.99999C12 12.8125 13.6289 15.7773 15.1562 18.1875C16.6836 20.5976 18 22.5 18 24C18 24.418 17.8008 24.8203 17.2812 25.4687C16.7617 26.1172 15.9844 26.9297 15.1875 28.0625C13.5938 30.3281 12 33.8555 12 40C12 40.5508 12.4492 41 13 41H24V50H26V41H37C37.5508 41 38 40.5508 38 40C38 33.8555 36.4062 30.3281 34.8125 28.0625C34.0156 26.9297 33.2383 26.1172 32.7188 25.4687C32.1992 24.8203 32 24.418 32 24C32 22.5 33.3164 20.5976 34.8438 18.1875C36.3711 15.7773 38 12.8125 38 8.99999C37.9961 8.60937 37.7656 8.2539 37.4062 8.09374C34.2344 6.71483 29.1562 4.43358 28.75 4.24999L27.9688 2.56249C27.8008 2.21483 27.4492 1.99608 27.0625 1.99999H22.9375C22.9062 1.99999 22.875 1.99999 22.8438 1.99999C22.8125 1.99999 22.7812 1.99999 22.75 1.99999ZM23.5938 3.99999H26.4062L27.0938 5.43749C27.1992 5.64843 27.3789 5.81249 27.5938 5.90624C27.5938 5.90624 32.5156 8.12108 35.875 9.59374C35.707 12.5351 34.5312 14.957 33.1562 17.125C33.0469 17.2969 32.9219 17.457 32.8125 17.625C32.793 17.6328 32.7695 17.6445 32.75 17.6562C32.75 17.6562 32.0195 18 31 18C29.5586 18 28.6875 17.25 28.6875 17.25C28.4531 17.0508 28.1445 16.9726 27.8438 17.0312C27.4648 17.1094 27.168 17.3945 27.0742 17.7695C26.9805 18.1406 27.1094 18.5351 27.4062 18.7812C27.4062 18.7812 28.8398 20 31 20C31.125 20 31.2266 19.9766 31.3438 19.9687C30.582 21.2578 30 22.5508 30 24C30 25.082 30.5508 25.957 31.1562 26.7187C31.7617 27.4805 32.4844 28.2226 33.1875 29.2187C34.5 31.0859 35.7695 33.9062 35.9375 39H14.0625C14.2305 33.9062 15.5 31.0859 16.8125 29.2187C17.5156 28.2226 18.2383 27.4805 18.8438 26.7187C19.4492 25.957 20 25.082 20 24C20 22.5508 19.418 21.2578 18.6562 19.9687C18.7734 19.9766 18.875 20 19 20C21.1602 20 22.5938 18.7812 22.5938 18.7812C22.9297 18.4922 23.0352 18.0195 22.8555 17.6172C22.6758 17.2109 22.25 16.9726 21.8125 17.0312C21.6289 17.0547 21.457 17.1328 21.3125 17.25C21.3125 17.25 20.4414 18 19 18C17.9805 18 17.25 17.6562 17.25 17.6562C17.2305 17.6445 17.207 17.6328 17.1875 17.625C17.1836 17.6211 17.1602 17.6289 17.1562 17.625C17.0508 17.4609 16.9492 17.293 16.8438 17.125C15.4688 14.957 14.293 12.5351 14.125 9.59374C17.4844 8.12108 22.4062 5.90624 22.4062 5.90624C22.6211 5.81249 22.8008 5.64843 22.9062 5.43749L23.5938 3.99999Z" fill="#A8715A"/>
</svg>
