<svg width="17" height="19" viewBox="0 0 17 19" fill="none" xmlns="http://www.w3.org/2000/svg">
<path d="M3.65288 8.35682C2.60036 8.91019 0 9.15613 0 9.15613V10.1399C0 10.1399 2.60036 10.3859 3.65288 10.9392C4.64349 11.4926 5.51028 12.2304 6.12941 13.2142C6.81045 14.198 7.24385 15.3047 7.55342 16.5959C7.86298 17.8871 7.98681 19 7.98681 19H8.8536C8.8536 19 9.15914 17.2349 9.28699 16.5959C9.59655 15.3047 10.0919 14.198 10.711 13.2142C11.3301 12.2304 12.135 11.4926 13.1875 10.9392C14.24 10.3859 16.8404 10.1399 16.8404 10.1399V9.15613C16.8404 9.15613 14.24 8.91019 13.1875 8.35682C12.1969 7.80345 11.3301 7.06562 10.711 6.08185C10.0299 5.09808 9.59655 3.99135 9.28699 2.70015C9.14496 1.93906 8.8536 0 8.8536 0H7.98681C7.98681 0 7.69902 2.20841 7.55342 2.70015C7.24385 3.99135 6.74854 5.09808 6.12941 6.08185C5.51028 7.06562 4.70541 7.80345 3.65288 8.35682Z" fill="#E0CFBA"/>
</svg>
