<svg width="375" height="180" viewBox="0 0 375 180" fill="none" xmlns="http://www.w3.org/2000/svg">
<path d="M188.578 167.764L193.127 163.215H250.979V163.008H193.127L188.578 158.51L184.08 163.008H126.021V163.215H184.08L188.578 167.764ZM188.578 158.82L192.92 163.111L188.578 167.454L184.235 163.111L188.578 158.82Z" fill="#555555"/>
<path fill-rule="evenodd" clip-rule="evenodd" d="M279.021 105.649L279.413 107.999H279.189C278.853 106.544 277.566 105.928 276.112 105.928C275.888 105.928 275.664 105.928 275.384 106.04V110.069H275.944C277.119 110.069 277.79 109.621 277.79 108.67H278.014V111.971H277.846C277.734 111.244 277.51 110.348 276 110.348H275.44V114.097C275.44 114.713 275.72 115.048 276.615 115.048V115.272H272.643V115.048C273.538 115.048 273.818 114.713 273.818 114.097V106.824C273.818 106.264 273.482 105.872 272.587 105.872V105.649H279.021Z" fill="#333333"/>
<path fill-rule="evenodd" clip-rule="evenodd" d="M287.022 105.649L287.414 107.999H287.19C286.854 106.544 285.567 105.928 284.113 105.928C283.889 105.928 283.665 105.928 283.385 106.04V110.069H283.945C285.12 110.069 285.791 109.621 285.791 108.67H286.015V111.971H285.847C285.735 111.244 285.511 110.348 284.001 110.348H283.441V114.097C283.441 114.713 283.721 115.048 284.616 115.048V115.272H280.644V115.048C281.539 115.048 281.819 114.713 281.819 114.097V106.824C281.819 106.264 281.483 105.872 280.588 105.872V105.649H287.022Z" fill="#333333"/>
<path fill-rule="evenodd" clip-rule="evenodd" d="M270.684 105.649V105.872C270.013 105.872 269.621 106.208 269.621 106.824V114.041C269.621 114.713 270.069 114.992 270.684 114.992V115.216H266.936V114.992C267.607 114.936 267.999 114.657 267.999 114.041V106.824C267.999 106.208 267.607 105.872 266.936 105.872V105.649H270.684Z" fill="#333333"/>
<path fill-rule="evenodd" clip-rule="evenodd" d="M265.817 103.019L266.208 105.928H266.04C265.481 104.418 264.418 103.411 262.459 103.411V113.65C262.459 114.769 263.075 115.104 263.746 115.104V115.328H259.27V115.104C259.886 115.104 260.669 114.769 260.669 113.65V103.355C258.655 103.355 257.704 104.306 256.976 105.928H256.808L257.144 103.019H265.817Z" fill="#333333"/>
<path fill-rule="evenodd" clip-rule="evenodd" d="M320.481 112.139C320.481 113.65 321.544 114.769 323.11 114.769C323.782 114.769 324.565 114.433 325.125 113.817L321.991 109.845C321.208 110.013 320.481 110.852 320.481 112.139ZM324.733 106.152C324.733 104.921 324.174 104.306 323.11 104.306C322.047 104.306 321.432 104.921 321.432 105.928C321.432 107.103 322.999 108.67 322.999 108.67C324.23 107.998 324.733 107.271 324.733 106.152ZM323.222 108.95L325.908 112.307C325.908 112.307 326.188 111.747 326.244 111.244C326.244 110.628 325.908 110.404 325.404 110.292V110.125H328.314C328.314 110.125 328.37 110.292 328.314 110.292C327.754 110.404 327.363 110.572 326.971 110.852C326.635 111.244 326.468 111.579 326.132 112.475L327.363 113.985C327.922 114.601 328.594 114.936 329.377 114.992V115.216H326.188V114.992L325.293 113.929C324.565 114.657 323.334 115.328 322.159 115.328C320.257 115.328 319.026 114.265 319.026 112.81C319.026 111.188 320.537 110.181 321.712 109.397C321.712 109.397 320.425 107.943 320.425 106.6C320.425 105.089 321.6 103.914 323.166 103.914C324.565 103.914 325.684 104.921 325.684 106.152C325.684 107.663 324.062 108.278 323.222 108.95Z" fill="#333333"/>
<path fill-rule="evenodd" clip-rule="evenodd" d="M342.581 102.795L342.693 106.656H342.47C342.078 104.474 340.623 103.243 338.833 103.243C336.651 103.243 335.14 105.76 335.14 109.173C335.14 113.37 336.818 115.104 339.112 115.104C341.518 115.104 342.47 112.866 342.693 111.3H342.917V112.978C342.525 113.706 341.295 115.328 338.777 115.328C335.588 115.328 333.07 112.698 333.07 109.173C333.07 105.984 335.867 103.019 338.777 103.019C340.455 103.019 340.903 103.746 341.574 103.746C342.078 103.746 342.302 103.411 342.302 102.795H342.581V102.795Z" fill="#333333"/>
<path fill-rule="evenodd" clip-rule="evenodd" d="M354.275 113.482C354.779 113.482 355.17 113.873 355.17 114.377C355.17 114.88 354.779 115.216 354.275 115.216C353.772 115.216 353.38 114.88 353.38 114.377C353.38 113.873 353.772 113.482 354.275 113.482Z" fill="#333333"/>
<path fill-rule="evenodd" clip-rule="evenodd" d="M345.491 110.292C345.491 113.258 346.666 115.104 348.456 115.104C350.303 115.104 351.478 113.426 351.478 110.292C351.478 107.439 350.471 105.872 348.512 105.816C346.498 105.76 345.491 107.663 345.491 110.292ZM348.456 105.593C351.198 105.593 353.492 107.663 353.492 110.46C353.492 113.146 351.31 115.272 348.512 115.272C345.771 115.272 343.477 113.09 343.477 110.46C343.477 107.831 345.715 105.593 348.456 105.593Z" fill="#333333"/>
<path fill-rule="evenodd" clip-rule="evenodd" d="M290.771 107.663L292.393 111.635H289.148L290.771 107.663ZM296.142 115.048C295.806 115.048 295.527 114.713 295.359 114.489C295.247 114.265 291.498 105.145 291.498 105.145L288.085 113.482C287.693 114.545 287.134 115.048 286.407 115.048V115.272H289.204V115.048C288.645 114.992 288.253 114.713 288.253 114.321C288.253 113.985 289.148 111.859 289.148 111.859H292.505C292.505 111.859 293.456 113.873 293.456 114.321C293.512 114.657 292.953 115.048 292.449 115.048V115.272H296.142V115.048Z" fill="#333333"/>
<path fill-rule="evenodd" clip-rule="evenodd" d="M297.653 113.594C297.653 114.489 297.093 114.88 296.478 115.048V115.272H299.275V115.048C298.492 114.88 298.044 114.321 298.044 113.594V107.327L304.591 115.44V107.607C304.591 106.488 305.206 105.816 305.933 105.816V105.649H302.8V105.816C303.695 106.096 304.311 106.6 304.311 107.663V112.475L298.828 105.649H296.254V105.816C297.373 105.872 297.653 106.768 297.653 106.991V113.594Z" fill="#333333"/>
<path fill-rule="evenodd" clip-rule="evenodd" d="M306.269 105.872C306.661 105.872 306.773 105.872 307.053 106.432C307.053 106.432 310.018 111.188 310.018 111.244V114.097C310.018 114.713 309.458 115.048 308.675 115.104V115.272H312.816V115.104C312.088 115.048 311.585 114.713 311.585 114.097V110.74C311.585 110.74 313.487 107.327 313.655 106.991C314.102 106.264 314.718 105.816 315.501 105.76V105.649H312.144L312.2 105.76C313.263 105.76 313.543 106.768 313.151 107.383L311.361 110.628L309.235 106.879C308.899 106.32 309.347 105.76 310.13 105.76V105.649H306.269V105.872Z" fill="#333333"/>
<path fill-rule="evenodd" clip-rule="evenodd" d="M233.543 102.598H236.838C236.485 102.893 236.25 103.246 236.25 103.716V115.131C236.25 115.602 236.485 115.955 236.838 116.249H233.543C233.896 115.955 234.132 115.602 234.132 115.131V103.716C234.132 103.187 233.896 102.834 233.543 102.598Z" fill="#333333"/>
<path fill-rule="evenodd" clip-rule="evenodd" d="M156.582 107.483C156.052 106.306 155.464 105.188 154.464 104.306C153.405 103.423 152.051 102.835 150.639 102.835C146.932 102.835 145.285 106.188 145.285 109.483C145.285 112.661 146.874 115.897 150.463 115.897C151.934 115.897 153.346 115.25 154.228 114.132V111.543C154.228 110.837 153.993 110.366 153.464 109.954H157.288C156.876 110.425 156.641 110.895 156.641 111.543V114.132C154.876 115.779 152.757 116.721 150.345 116.721C146.05 116.779 142.578 113.661 142.578 109.307C142.578 105.012 145.991 102.07 150.169 102.07C152.757 102.07 154.876 103.011 156.582 104.953V107.483Z" fill="#333333"/>
<path fill-rule="evenodd" clip-rule="evenodd" d="M165.879 102.598H169.468C168.997 102.951 168.82 103.363 168.82 103.952V112.307C168.82 114.602 171.527 115.719 173.469 115.719C175.41 115.719 177.941 114.602 177.941 112.366V103.952C177.941 103.363 177.823 103.01 177.411 102.598H179.353C178.941 103.01 178.823 103.422 178.823 103.952V112.366C178.823 115.366 175.293 116.543 172.822 116.543C170.291 116.543 166.585 115.425 166.585 112.307V103.952C166.526 103.363 166.29 102.951 165.879 102.598Z" fill="#333333"/>
<path fill-rule="evenodd" clip-rule="evenodd" d="M201.711 107.541C201.241 106.364 200.652 105.305 199.711 104.422C198.652 103.481 197.357 102.892 195.945 102.892C192.238 102.892 190.356 106.129 190.356 109.424C190.356 112.777 192.297 115.955 195.945 115.955C198.652 115.955 200.593 114.072 201.711 111.777V114.248C200.064 115.896 197.887 116.778 195.474 116.778C191.062 116.778 187.767 113.954 187.767 109.424C187.825 104.952 191.003 102.069 195.298 102.069C197.71 102.069 200.005 102.892 201.711 104.54V107.541Z" fill="#333333"/>
<path fill-rule="evenodd" clip-rule="evenodd" d="M224.776 107.541C224.306 106.364 223.717 105.305 222.776 104.423C221.717 103.481 220.422 102.893 219.01 102.893C215.303 102.893 213.479 106.129 213.479 109.424C213.479 112.778 215.421 115.955 219.069 115.955C221.775 115.955 223.717 114.072 224.835 111.777V114.249C223.129 115.896 221.011 116.779 218.598 116.779C214.185 116.779 210.89 113.954 210.89 109.424C210.89 105.011 214.068 102.128 218.363 102.128C220.775 102.128 223.07 102.952 224.776 104.599V107.541Z" fill="#333333"/>
<path fill-rule="evenodd" clip-rule="evenodd" d="M76.516 105.054C76.1463 105.054 75.8588 104.849 75.8588 104.479C75.8588 103.904 76.4339 103.164 77.009 103.164C77.3787 103.164 77.543 103.493 77.543 103.822C77.584 104.438 77.1733 105.054 76.516 105.054Z" fill="#333333"/>
<path fill-rule="evenodd" clip-rule="evenodd" d="M39.9151 113.311C37.6558 114.913 34.4927 116.802 31.6583 116.802C28.7417 116.802 26.6467 114.831 26.6467 111.914C26.6467 110.312 27.2629 108.751 27.9612 107.354C29.3168 104.643 31.3297 102.179 33.6712 100.248C35.4786 98.769 37.6558 97.6188 39.9562 97.0437C40.5723 96.8794 41.2296 96.7972 41.8458 96.7972C42.6673 96.7972 43.53 96.9205 44.2694 97.2902L45.3374 97.8653C45.5428 97.9885 45.7893 97.9885 45.9947 97.9885C46.7752 97.9885 47.4324 97.5367 48.0486 97.0848L48.2951 97.3724C46.8574 98.3171 46.2412 99.3441 45.6661 100.946L45.4196 100.782C45.5428 100.412 45.625 100.084 45.625 99.7138C45.625 97.9063 43.3657 97.0437 41.8047 97.0437C40.6545 97.0437 39.5043 97.4134 38.4773 97.9063C34.7803 99.7138 31.8226 103 30.0152 106.697C29.1525 108.464 28.4953 110.435 28.4953 112.448C28.4953 114.79 29.8098 116.392 32.1923 116.392C34.7471 116.392 37.6509 114.491 39.7731 113.102L39.9562 112.982C40.2848 112.202 40.6545 111.503 41.1885 110.846C42.7906 108.751 45.3374 106.615 48.0897 106.615C49.5275 106.615 50.2258 107.313 50.2669 108.71L51.2117 107.108H52.937L48.8702 114.215L48.8251 114.304C48.6706 114.61 48.5005 114.946 48.5005 115.283C48.5005 115.693 48.9113 115.94 49.3221 115.94C50.3022 115.94 51.3571 115.117 52.0941 114.542L52.1976 114.461C54.1282 112.982 55.8946 111.257 57.0448 109.08L58.1539 107.067H60.0025L59.5095 107.971C60.4133 107.437 61.4813 106.985 62.5493 106.985C63.1655 106.985 63.7406 107.272 63.7406 107.93C63.7406 108.422 63.4941 108.792 63.1244 109.121C63.2066 109.162 63.2477 109.203 63.3298 109.203C63.6403 109.203 63.9141 109.02 64.1513 108.861L64.1925 108.833C65.7535 107.847 67.1912 106.492 68.0949 104.931L69.3684 102.754H71.0937L68.9165 106.574H71.4634L71.3401 106.903H68.7933L64.5211 114.297C64.3568 114.584 64.1925 114.913 64.1925 115.241C64.1925 115.652 64.6854 115.858 65.0551 115.858C65.8177 115.858 66.5019 115.387 67.146 114.944L67.1912 114.913C68.3414 114.091 69.4094 113.064 70.3953 112.078C71.1347 111.339 71.8331 110.6 72.4492 109.778C72.7779 109.326 73.0654 108.874 73.353 108.422L74.1335 107.149H75.8177L71.6277 114.543C71.4634 114.79 71.3812 115.118 71.3812 115.406C71.3812 115.734 71.6277 116.022 71.9563 116.022C72.9422 116.022 74.0513 115.2 74.7907 114.543L77.8305 111.873C79.5148 109.901 82.267 106.779 85.1014 106.779C86.0051 106.779 87.0321 107.231 87.0321 108.258C87.0321 109.039 86.4981 109.778 86.0051 110.312C84.896 111.503 83.2529 112.202 81.733 112.612C80.9525 112.818 80.172 112.859 79.3915 112.859C79.145 113.434 78.8986 114.009 78.8986 114.625C78.8986 115.488 79.6791 116.227 80.5417 116.227C82.6367 116.227 85.7176 114.05 87.2375 112.859C88.5109 111.832 89.7022 110.641 90.7702 109.408C90.8316 109.335 90.894 109.261 90.9565 109.187C91.3124 108.766 91.6759 108.337 91.9205 107.847L92.3312 107.108H94.0565L92.8242 109.491C94.1798 108.258 95.8229 107.026 97.7125 107.026C98.3287 107.026 98.8216 107.396 98.8216 108.053C98.8216 108.628 98.2876 109.326 97.6714 109.326C97.3428 109.326 97.0142 108.998 97.0142 108.669C97.0142 108.135 97.5893 107.765 98.0822 107.765C98.1644 107.765 98.2876 107.765 98.3698 107.806C98.2055 107.478 97.959 107.313 97.5893 107.313C96.6856 107.313 95.8229 107.765 95.0835 108.176C93.3993 109.162 92.1259 110.723 91.14 112.366L88.6752 116.556H86.9089L90.8935 109.696C90.0308 110.723 89.1271 111.668 88.1001 112.53C86.9499 113.516 85.7176 114.379 84.4442 115.159C83.1297 115.94 81.6097 116.679 80.0488 116.679C78.5289 116.679 77.1322 115.817 77.1322 114.173C77.1322 113.716 77.2384 113.294 77.3522 112.841L77.3787 112.736C77.2479 112.856 77.1119 112.983 76.9711 113.114C75.4322 114.549 73.3245 116.515 71.2169 116.515C70.3543 116.515 69.6559 116.227 69.6559 115.283C69.6559 114.755 69.9566 114.258 70.2236 113.817C70.2686 113.742 70.3127 113.67 70.3543 113.598L71.7509 111.134C70.3543 112.654 68.9165 114.132 67.2323 115.283C66.2875 115.94 65.2194 116.556 64.0692 116.556C63.3298 116.556 62.5493 116.104 62.5493 115.283C62.5493 114.679 62.8868 114.106 63.1906 113.591C63.2166 113.546 63.2424 113.503 63.2678 113.459C63.2888 113.423 63.3096 113.387 63.3298 113.352L66.9036 107.067C66.2464 107.683 65.5891 108.258 64.8908 108.792C64.8397 108.83 64.788 108.868 64.7358 108.907L64.7312 108.91C64.1545 109.338 63.5062 109.819 62.7547 109.819C62.2618 109.819 61.851 109.532 61.851 108.998C61.851 108.464 62.3029 108.053 62.8369 108.053C63.0012 108.053 63.1244 108.094 63.2477 108.176C63.2887 108.094 63.3298 107.971 63.3298 107.847C63.3298 107.478 62.878 107.272 62.5904 107.272C61.6867 107.272 60.7419 107.724 60.0025 108.135C59.2631 108.587 58.7701 109.326 58.3593 110.066L54.6212 116.556H52.8137L55.4838 111.914C53.7175 113.804 50.8009 116.597 48.0897 116.597C47.3503 116.597 46.693 116.227 46.693 115.447C46.693 114.954 46.8984 114.502 47.1038 114.05C45.8304 115.406 44.064 116.802 42.0922 116.802C40.8188 116.802 39.7097 115.899 39.7097 114.584C39.6686 114.132 39.7918 113.722 39.9151 113.311ZM49.9793 108.381C49.9793 107.437 49.2399 106.861 48.3362 106.861C47.3092 106.861 46.4876 107.354 45.7072 107.93C44.1051 109.08 42.7495 110.723 41.8869 112.489C41.5582 113.146 41.2707 113.804 41.2707 114.584C41.2707 115.406 41.7636 116.186 42.6673 116.186C44.7623 116.186 46.9806 113.845 48.2129 112.243C48.9524 111.216 49.9793 109.655 49.9793 108.381ZM80.0077 112.489H79.5148L79.6303 112.296C80.6634 110.569 82.7577 107.067 84.8139 107.067C85.3068 107.067 85.8408 107.272 85.8408 107.806C85.8408 108.792 84.896 110.024 84.1977 110.682C83.1297 111.709 81.5276 112.489 80.0077 112.489Z" fill="#333333"/>
<path d="M278.631 74.3014V72.9797H279.865V74.3014H280.514V71.2781H279.865V72.4676H278.631V71.2781H277.982V74.3014H278.631Z" fill="#333333"/>
<path d="M286.229 71.2781V72.9136C286.229 73.4258 286.213 73.8884 285.58 73.8884C284.946 73.8884 284.93 73.4258 284.93 72.9136V71.2781H284.265V73.178C284.265 73.9875 284.849 74.3675 285.58 74.3675C286.31 74.3675 286.895 73.971 286.895 73.178V71.2781H286.229Z" fill="#333333"/>
<path d="M292.658 73.1944V73.8056C292.496 73.8552 292.333 73.9047 292.09 73.9047C291.473 73.9047 291.213 73.4752 291.213 72.7979C291.213 72.1205 291.457 71.691 292.025 71.691C292.415 71.691 292.642 71.9388 292.642 72.2031H293.291C293.291 71.6084 292.772 71.2119 291.976 71.2119C291.359 71.2119 290.515 71.5918 290.515 72.7813C290.515 73.9874 291.327 74.3508 292.041 74.3508C292.658 74.3508 293.064 74.2186 293.291 74.1195V72.6822H292.057V73.1778H292.658V73.1944Z" fill="#333333"/>
<path d="M322.758 72.1205C322.758 71.5092 322.158 71.1788 321.606 71.1788C321.054 71.1788 320.437 71.5258 320.437 72.1205C320.437 72.5501 320.745 72.7814 321.167 72.9135C321.297 72.9466 321.525 73.0292 321.638 73.0622C322.044 73.1779 322.19 73.2935 322.19 73.5413C322.19 73.8717 321.865 73.9874 321.687 73.9874C321.2 73.9874 321.021 73.7065 321.021 73.3596H320.372C320.372 74.0369 320.859 74.4169 321.671 74.4169C322.304 74.4169 322.872 74.07 322.872 73.4587C322.872 72.9796 322.515 72.7153 322.06 72.5831C321.898 72.5335 321.752 72.5005 321.589 72.4509C321.232 72.3353 321.07 72.2362 321.07 72.0214C321.07 71.8066 321.232 71.6249 321.573 71.6249C321.93 71.6249 322.093 71.8562 322.093 72.1536H322.758V72.1205Z" fill="#333333"/>
<path d="M329.123 72.1205C329.123 71.5092 328.522 71.1788 327.97 71.1788C327.418 71.1788 326.801 71.5258 326.801 72.1205C326.801 72.5501 327.109 72.7814 327.532 72.9135C327.661 72.9466 327.889 73.0292 328.002 73.0622C328.408 73.1779 328.554 73.2935 328.554 73.5413C328.554 73.8717 328.23 73.9874 328.051 73.9874C327.564 73.9874 327.385 73.7065 327.385 73.3596H326.736C326.736 74.0369 327.223 74.4169 328.035 74.4169C328.668 74.4169 329.236 74.07 329.236 73.4587C329.236 72.9796 328.879 72.7153 328.424 72.5831C328.262 72.5335 328.116 72.5005 327.954 72.4509C327.596 72.3353 327.434 72.2362 327.434 72.0214C327.434 71.8066 327.596 71.6249 327.937 71.6249C328.295 71.6249 328.457 71.8562 328.457 72.1536H329.123V72.1205Z" fill="#333333"/>
<path d="M298.454 74.4004C299.477 74.4004 299.932 73.7065 299.932 72.7979C299.932 71.8892 299.477 71.1954 298.454 71.1954C297.431 71.1954 296.977 71.8892 296.977 72.7979C296.977 73.7065 297.431 74.4004 298.454 74.4004ZM298.454 71.658C299.104 71.658 299.234 72.2527 299.234 72.7814C299.234 73.31 299.104 73.9048 298.454 73.9048C297.805 73.9048 297.675 73.31 297.675 72.7814C297.675 72.2692 297.805 71.658 298.454 71.658Z" fill="#333333"/>
<path d="M308.699 74.3343C309.299 74.3343 309.851 74.037 309.851 73.4752C309.851 73.0127 309.494 72.7483 309.137 72.7153C309.381 72.6822 309.705 72.4179 309.705 72.0379C309.705 71.4927 309.299 71.2449 308.666 71.2449H307.351V74.3343H308.699ZM308.001 73.8552V72.9631H308.585C308.877 72.9631 309.121 73.0457 309.121 73.3926C309.121 73.7231 308.861 73.8387 308.585 73.8387H308.001V73.8552ZM308.001 72.517V71.724H308.601C308.861 71.724 309.023 71.9058 309.023 72.1205C309.023 72.3518 308.812 72.5005 308.569 72.5005H308.001V72.517Z" fill="#333333"/>
<path d="M315.095 74.4169C316.118 74.4169 316.589 73.7065 316.589 72.7979C316.589 71.8727 316.118 71.1788 315.095 71.1788C314.073 71.1788 313.602 71.8892 313.602 72.7979C313.602 73.7065 314.073 74.4169 315.095 74.4169ZM315.095 71.6414C315.761 71.6414 315.891 72.2362 315.891 72.7814C315.891 73.3265 315.761 73.9213 315.095 73.9213C314.43 73.9213 314.3 73.3265 314.3 72.7814C314.3 72.2527 314.43 71.6414 315.095 71.6414Z" fill="#333333"/>
<path d="M317.823 64.2071C317.953 65.76 317.287 68.6677 312.952 68.8494C311.036 68.932 308.634 68.3208 307.676 67.8747V64.141H308.147C308.244 64.6036 309.153 68.0564 312.319 68.2216C314.154 68.3042 315.55 67.5278 315.582 65.9748C315.631 64.174 313.667 63.5462 311.897 62.8359C309.9 62.0263 307.968 61.2168 307.692 59.0195C307.4 56.4423 309.721 54.6911 312.4 54.8067C313.878 54.8728 315.355 55.2363 316.492 55.6989V58.8543H316.021C315.745 57.1362 314.738 55.5171 312.433 55.3684C311.085 55.2858 309.868 55.798 309.868 57.2849C309.868 58.7717 312.303 59.383 314.072 60.0934C315.858 60.8203 317.612 61.8116 317.823 64.2071Z" fill="#333333"/>
<path d="M329.918 64.2071C330.048 65.76 329.382 68.6677 325.048 68.8494C323.132 68.932 320.729 68.3208 319.771 67.8747V64.141H320.242C320.339 64.6036 321.249 68.0564 324.414 68.2216C326.249 68.3042 327.645 67.5278 327.678 65.9748C327.726 64.174 325.762 63.5462 323.992 62.8359C321.995 62.0263 320.063 61.2168 319.804 59.0195C319.495 56.4423 321.817 54.6911 324.496 54.8067C325.973 54.8728 327.45 55.2363 328.587 55.6989V58.8543H328.116C327.84 57.1362 326.833 55.5171 324.528 55.3684C323.181 55.2858 321.963 55.798 321.963 57.2849C321.963 58.7717 324.398 59.383 326.168 60.0934C327.954 60.8203 329.707 61.8116 329.918 64.2071Z" fill="#333333"/>
<path d="M291.538 61.8611C291.538 57.8961 294.688 54.691 298.584 54.691C302.481 54.691 305.63 57.8961 305.63 61.8611C305.63 65.8261 302.481 69.0311 298.584 69.0311C294.688 69.0311 291.538 65.8096 291.538 61.8611ZM298.584 68.4198C301.344 68.3868 302.302 64.8018 302.302 61.8446C302.302 58.8708 301.101 55.2527 298.584 55.2527C295.938 55.2362 294.866 58.8873 294.866 61.8446C294.866 64.8018 295.824 68.4529 298.584 68.4198Z" fill="#333333"/>
<path d="M278.534 67.5277C278.534 67.9242 278.079 68.1225 277.657 68.1225H277.332V68.6346H284.508C287.041 68.6346 289.736 67.4451 289.768 64.8018C289.801 61.7785 286.765 61.2498 285.807 61.1672C287.301 60.9194 289.07 59.6473 288.989 57.83C288.892 55.897 286.878 54.9884 284.979 54.9884L277.413 55.0049V55.5171H277.803C278.095 55.5171 278.55 55.5997 278.55 56.0292V67.5277H278.534ZM281.602 68.0729V61.5306H283.372C285.369 61.5306 286.408 62.968 286.489 64.6035C286.602 66.553 285.174 68.0729 283.372 68.0729H281.602ZM281.602 61.002V55.5171H283.096C284.557 55.5171 285.758 56.4588 285.823 58.1604C285.888 59.7794 284.687 61.002 283.177 61.002H281.602Z" fill="#333333"/>
<path fill-rule="evenodd" clip-rule="evenodd" d="M140.551 66.6211H141.867V60.0411H140.551V59.767C142.141 59.767 143.621 59.767 145.211 59.767C146.198 59.767 147.405 59.8218 148.282 60.1508C148.885 60.425 149.214 60.9733 149.214 61.5216C149.214 62.0699 148.885 62.3441 148.392 62.7279C148.118 62.8924 147.953 62.9473 147.569 63.0569C148.118 63.1118 148.501 63.2214 149.05 63.5504C149.598 63.9343 149.872 64.4826 149.872 64.9761C149.872 65.5792 149.434 66.1824 148.666 66.4017C147.514 66.8404 146.198 66.8404 144.937 66.8404H140.551V66.6211ZM144.06 66.6211H144.992C145.815 66.6211 146.418 66.4566 146.911 66.2921C147.35 66.0727 147.734 65.6889 147.734 64.9761C147.734 64.1536 147.514 63.5504 146.582 63.2763C146.144 63.1666 144.005 63.2214 144.005 63.2214V66.6211H144.06ZM144.06 62.8924C145.047 62.8924 146.144 62.9473 146.527 62.7828C147.131 62.5086 147.35 62.2344 147.35 61.4668C147.35 60.8088 147.131 60.4798 146.747 60.3153C146.308 60.096 145.54 60.0411 144.828 60.0411H144.06V62.8924ZM178.111 66.6211H179.427V60.0411H178.111V59.767C179.701 59.767 181.237 59.767 182.772 59.767C183.759 59.767 184.965 59.8218 185.843 60.1508C186.501 60.425 186.775 60.9733 186.775 61.5216C186.775 62.0699 186.446 62.3441 185.952 62.7279C185.678 62.8924 185.514 62.9473 185.13 63.0569C185.678 63.1118 186.062 63.2214 186.665 63.5504C187.213 63.9343 187.433 64.4826 187.433 64.9761C187.433 65.5792 186.994 66.1824 186.281 66.4017C185.13 66.8404 183.759 66.8404 182.553 66.8404H178.111V66.6211ZM181.675 66.6211H182.607C183.43 66.6211 184.033 66.4566 184.527 66.2921C184.965 66.0727 185.349 65.6889 185.349 64.9761C185.349 64.1536 185.185 63.5504 184.198 63.2763C183.759 63.1666 181.675 63.2214 181.675 63.2214V66.6211ZM181.675 62.8924C182.662 62.8924 183.704 62.9473 184.143 62.7828C184.746 62.5086 184.965 62.2344 184.965 61.4668C184.965 60.8088 184.691 60.4798 184.307 60.2605C183.869 60.0411 183.101 59.9863 182.388 59.9863H181.675V62.8924ZM153.436 65.0858V60.0411H151.956V59.767H156.891V60.0411H155.465V65.0309C155.465 65.5244 155.685 65.8534 156.123 66.1276C156.507 66.4566 157.001 66.6211 157.933 66.6211C159.029 66.6211 159.852 66.4017 160.29 65.9631C160.784 65.5792 161.003 65.0858 161.003 64.5923V60.0411H159.578V59.767H163.032V60.0411H161.606V64.6471C161.606 65.3599 161.277 65.9631 160.674 66.4017C159.961 66.8404 159.249 67.0597 157.987 67.0597C156.781 67.0597 155.41 66.8952 154.643 66.5662C153.82 66.2372 153.436 65.7437 153.436 65.0858ZM166.487 66.6211V60.0411H165.061V59.767H170.544C171.751 59.8218 172.354 59.767 173.176 60.096C173.725 60.3153 174.108 60.8088 174.108 61.4668C174.108 62.8376 172.847 63.0021 171.97 63.1666C172.738 63.2214 173.176 63.3311 173.67 63.5504C174.163 63.8246 174.383 64.2633 174.492 64.4826C174.602 64.8664 174.547 65.3051 174.547 65.6889C174.602 66.4017 174.986 66.6759 175.589 66.6211C175.753 66.5662 175.918 66.5114 176.027 66.4017L176.192 66.7307C175.808 67.0049 175.369 67.1146 174.931 67.0597C174.218 67.0597 173.615 66.9501 173.176 66.6759C172.738 66.4017 172.463 66.0179 172.354 65.4696C172.354 65.0309 172.354 64.5923 172.244 64.1536C171.97 63.4408 171.038 63.3311 170.435 63.3311H168.68V66.6759H170.16V66.8952H164.951V66.6211H166.487ZM168.625 62.9473H170.544C171.476 62.9473 172.025 62.5634 172.025 61.412C172.025 60.4798 171.257 59.9863 170.435 59.9863H168.625V62.9473ZM216.933 66.6211V60.0411H215.507V59.767H220.99C222.197 59.8218 222.8 59.767 223.568 60.096C224.171 60.3153 224.555 60.8088 224.555 61.4668C224.555 62.8376 223.293 63.0021 222.361 63.1666C223.184 63.2214 223.568 63.3311 224.061 63.5504C224.609 63.8246 224.829 64.2633 224.884 64.4826C225.048 64.8664 224.993 65.3051 224.993 65.6889C225.048 66.4017 225.432 66.6759 226.035 66.6211C226.2 66.5662 226.364 66.5114 226.474 66.4017L226.638 66.7307C226.309 67.0049 225.816 67.1146 225.377 67.0597C224.664 67.0597 224.116 66.9501 223.677 66.6759C223.239 66.4017 222.91 66.0179 222.855 65.4696C222.8 65.0309 222.8 64.5923 222.635 64.1536C222.416 63.4408 221.429 63.3311 220.826 63.3311H219.126V66.6759H220.607V66.8952H215.397V66.6211H216.933ZM219.071 62.9473H220.936C221.868 62.9473 222.471 62.5634 222.471 61.412C222.471 60.4798 221.703 59.9863 220.881 59.9863H219.071V62.9473ZM203.883 66.6211V60.0411H202.457V59.767H207.94C209.147 59.8218 209.75 59.767 210.572 60.096C211.12 60.3153 211.559 60.8088 211.559 61.4668C211.559 62.8376 210.298 63.0021 209.366 63.1666C210.133 63.2214 210.572 63.3311 211.066 63.5504C211.559 63.8246 211.778 64.2633 211.888 64.4826C212.053 64.8664 211.943 65.3051 211.943 65.6889C211.998 66.4017 212.382 66.6759 212.985 66.6211C213.149 66.5662 213.314 66.5114 213.423 66.4017L213.588 66.7307C213.259 67.0049 212.765 67.1146 212.327 67.0597C211.614 67.0597 211.011 66.9501 210.572 66.6759C210.133 66.4017 209.859 66.0179 209.75 65.4696C209.695 65.0309 209.695 64.5923 209.585 64.1536C209.311 63.4408 208.379 63.3311 207.776 63.3311H206.021V66.6759H207.556V66.8952H202.347V66.6211H203.883ZM206.076 62.9473H207.995C208.927 62.9473 209.476 62.5634 209.476 61.412C209.476 60.4798 208.708 59.9863 207.885 59.9863H206.076V62.9473ZM189.9 66.6211H191.326V60.0411H189.9V59.767H198.948V61.9054H198.619C198.454 61.3571 198.07 60.5895 197.632 60.3153C197.303 60.1508 196.809 60.0411 195.987 60.0411H193.519V63.0569C194.067 63.0569 194.835 63.1118 195.329 62.8924C195.712 62.7279 195.987 62.2893 196.041 61.8506H196.425V64.7019H196.041C195.987 64.1536 195.658 63.8246 195.274 63.6601C194.89 63.4956 194.177 63.4956 193.464 63.4956V66.6759H196.206C197.412 66.6759 197.796 66.5114 198.29 66.2372C198.728 65.9082 199.112 65.1954 199.222 64.4826H199.551V66.8952H189.9V66.6211ZM230.257 66.6211H231.957V63.5504L228.612 60.0411H227.187V59.767H232.67V60.0411H231.025L233.821 63.1666L236.727 60.0411H234.808V59.767H238.866V60.0411H237.331L234.15 63.5504V66.6211H235.85V66.8952H230.367V66.6211H230.257Z" fill="#333333"/>
<path fill-rule="evenodd" clip-rule="evenodd" d="M30.2415 58.0166L31.2854 59.1444V67.4407L30.5155 68.5296L35.2654 68.5425L34.4041 67.5444L34.3128 64.5629L38.893 64.5889C40.3024 64.1351 41.7247 63.1889 41.803 61.2703C41.7769 59.4166 40.6025 58.237 39.2323 57.9907L30.2415 58.0166ZM34.1562 58.5481V63.8759L37.6795 63.9018C38.4755 63.2796 39.0888 62.8129 39.0627 61.3222C39.0496 60.1166 38.7887 59.0537 37.6012 58.5481H34.1562Z" fill="#333333"/>
<path fill-rule="evenodd" clip-rule="evenodd" d="M43.9952 57.9646L45.0392 59.0924V67.3887L44.2693 68.4776L49.0192 68.4905L48.1579 67.4924L48.0666 64.5109H48.0796L52.9861 68.5294L57.0574 68.5035L53.3384 65.4183H50.2327L49.1366 64.5239L52.6338 64.5368C54.017 64.0961 55.4524 63.1498 55.5176 61.2313C55.4915 59.3776 54.3171 58.185 52.947 57.9517L43.9952 57.9646ZM47.91 58.4831V63.8109L51.4333 63.8368C52.2293 63.2146 52.8426 62.7479 52.8165 61.2572C52.8034 60.0517 52.5424 58.9887 51.355 58.4831H47.91Z" fill="#333333"/>
<path fill-rule="evenodd" clip-rule="evenodd" d="M61.0114 57.9517H65.1088L70.4459 67.4405C70.6808 68.1794 71.3724 68.0887 71.8291 68.3998H66.6617L67.4316 68.1664L67.3794 67.4535L66.0483 65.4053L61.5072 65.4313L60.5416 67.4016C60.5155 67.622 60.2545 67.8035 60.4503 68.0757L60.8156 68.4127L58.5842 68.3609L59.5499 68.0757L63.2167 60.6739V60.1683L61.6769 58.2109L61.0114 57.9517ZM61.8074 64.7702L63.6864 61.3479L65.6438 64.7442L61.8074 64.7702Z" fill="#333333"/>
<path fill-rule="evenodd" clip-rule="evenodd" d="M88.7408 57.9647H92.8382L98.1753 67.4665C98.4102 68.2054 99.1018 68.1147 99.5585 68.4258H94.3911L95.161 68.1925L95.1088 67.4795L93.7778 65.4443L89.2367 65.4703L88.271 67.4406C88.2449 67.661 87.984 67.8425 88.1797 68.1147L88.5451 68.4517L86.3137 68.3999L87.2793 68.1147L90.9461 60.7129V60.2073L89.3933 58.224L88.7408 57.9647ZM89.5368 64.7832L91.4159 61.361L93.3733 64.7573L89.5368 64.7832Z" fill="#333333"/>
<path fill-rule="evenodd" clip-rule="evenodd" d="M73.2514 57.848L80.559 57.8869C82.9078 58.4183 84.4085 59.7924 84.8652 62.1905L84.8521 64.0702C84.4215 66.209 83.0122 67.6868 80.5459 68.4387L73.2253 68.4516V68.2313C74.3345 68.1535 74.4259 68.0239 74.4259 67.4016V58.8591C74.4128 58.3924 74.3215 58.0943 73.2384 58.0683L73.2514 57.848ZM77.4011 58.5739L77.388 67.8165C78.3537 67.8165 79.1888 67.9072 79.6586 67.6739C80.7286 67.2072 81.2245 66.4813 81.2767 65.8072L81.2506 60.3628C81.2506 59.4943 80.2588 58.872 79.6977 58.7165C79.2802 58.5609 78.4711 58.5609 77.4011 58.5739Z" fill="#333333"/>
<path d="M188.578 20.2543L193.127 15.7047H250.979V15.4979H193.127L188.578 11L184.08 15.4979H126.021V15.7047H184.08L188.578 20.2543ZM188.578 11.3102L192.92 15.6013L188.578 19.9441L184.235 15.6013L188.578 11.3102Z" fill="#555555"/>
</svg>
