<svg width="67" height="40" viewBox="0 0 67 40" fill="none" xmlns="http://www.w3.org/2000/svg">
<path d="M60.7915 1.1659C56.0058 1.1659 48.9566 4.1408 41.4546 7.43907C40.4199 7.11571 39.3205 6.72768 38.2857 6.33965C26.9035 2.20065 15.1332 -2.06769 1.22876 1.10123L1.16409 1.1659L0 4.14081L0.323359 3.94679C0.323359 3.94679 3.16892 2.32999 9.24807 2.13598C14.8745 2.00664 24.5106 3.04138 38.5444 8.7325C34.9228 10.3493 31.3012 11.9661 27.8089 13.2595C27.2915 13.0008 26.8388 12.7422 26.3214 12.4188C21.1477 9.57324 16.6207 7.11571 12.7404 7.11571C9.95946 7.11571 7.69595 9.37922 7.69595 12.0954C7.69595 14.8763 9.95946 17.1398 12.7404 17.1398C17.138 17.1398 22.3765 15.6524 27.8089 13.5829C30.7838 15.1997 33.888 16.8165 37.251 18.1746C36.8629 18.4333 36.4749 18.6273 36.0869 18.8213C34.1467 19.9854 32.1419 21.1495 30.1371 22.1196C26.5801 20.1794 23.2819 18.5626 20.4363 18.5626C18.6255 18.5626 17.138 20.0501 17.138 21.7962C17.138 23.607 18.6255 25.0945 20.4363 25.0945C23.7346 25.0945 26.9682 23.9304 30.1371 22.3783C30.6545 22.637 31.6245 23.219 31.6245 23.219C33.4353 24.2537 35.3108 25.2238 37.1863 26.1292C36.2162 26.7113 35.2462 27.358 34.3407 28.0694C33.306 28.7161 32.3359 29.4275 31.3658 30.0095C28.973 29.0395 26.6448 28.4574 25.3514 28.4574C24.1873 28.4574 23.2172 29.4275 23.2172 30.5916C23.2172 31.7557 24.1873 32.7258 25.3514 32.7258C27.1622 32.7258 29.2317 31.691 31.4305 30.2682C32.4006 30.7209 33.4353 31.1736 34.4701 31.7557C36.7983 33.0491 40.7433 35.7653 40.7433 39.3223V39.4516L42.8128 39.8397L42.8774 39.7103C42.8774 39.6456 43.1361 38.0288 42.0367 35.9593C41.0019 34.0192 38.6738 31.303 33.0473 29.2335C33.5 28.9101 34.0174 28.5868 34.4701 28.2634C35.4402 27.552 36.4749 26.9053 37.445 26.2586C40.0319 27.4227 42.6187 28.2634 45.0116 28.2634C46.4991 28.2634 47.6631 27.0346 47.6631 25.6119C47.6631 24.1891 46.4991 22.9603 45.0116 22.9603C42.6834 22.9603 40.0319 24.3184 37.445 25.9352C35.5695 25.0945 33.6294 23.9951 31.7539 22.9603C31.7539 22.9603 30.8485 22.5076 30.3958 22.2489C32.4006 21.2788 34.3407 20.1794 36.2162 19.08C36.6689 18.8213 37.1216 18.5626 37.5097 18.3039C41.7133 19.9854 46.2404 21.1495 51.1554 21.1495C53.4189 21.1495 55.2298 19.3387 55.2298 17.0752C55.2298 14.8763 53.4189 13.0655 51.1554 13.0655C46.6284 13.0655 41.972 15.4584 37.5097 18.0453C34.2114 16.6871 31.0425 15.0703 28.1323 13.4535C31.9479 11.9661 35.8929 10.22 39.7732 8.47382C40.2906 8.21513 40.8726 8.02111 41.4546 7.76243C48.0512 10.0906 54.389 12.0954 60.7915 12.0954C64.8012 12.0954 67 10.414 67 7.3744C67 3.94679 64.2191 1.1659 60.7915 1.1659ZM12.7404 16.8812C10.0888 16.8812 7.95464 14.747 7.95464 12.0954C7.95464 9.50857 10.0888 7.3744 12.7404 7.3744C16.556 7.3744 21.0183 9.83193 26.1921 12.6775C26.6448 12.9362 27.0328 13.1302 27.4855 13.3889C22.1824 15.4584 17.0734 16.8812 12.7404 16.8812ZM20.4363 24.8358C18.7548 24.8358 17.3967 23.4777 17.3967 21.7962C17.3967 20.1794 18.7548 18.8213 20.4363 18.8213C23.1525 18.8213 26.3861 20.3734 29.8784 22.2489C26.7741 23.7364 23.6052 24.8358 20.4363 24.8358ZM25.3514 32.4671C24.3166 32.4671 23.4759 31.6263 23.4759 30.5916C23.4759 29.5568 24.3166 28.7161 25.3514 28.7161C26.5801 28.7161 28.779 29.2335 31.1072 30.2036C28.973 31.497 27.0328 32.4671 25.3514 32.4671ZM41.778 36.024C42.6834 37.7702 42.6834 39.1283 42.6187 39.581L41.0019 39.2576C40.9373 35.248 36.1516 31.9497 31.6892 30.1389C32.0772 29.8802 32.4006 29.6215 32.7886 29.4275C38.4151 31.4323 40.8079 34.1485 41.778 36.024ZM45.0116 23.219C46.305 23.219 47.4045 24.3184 47.4045 25.6119C47.4045 26.9053 46.305 28.0047 45.0116 28.0047C42.6834 28.0047 40.2259 27.164 37.7684 26.0646C40.2906 24.5124 42.7481 23.219 45.0116 23.219ZM51.1554 13.3242C53.2896 13.3242 54.9711 15.0057 54.9711 17.0752C54.9711 19.1447 53.2896 20.8908 51.1554 20.8908C46.3697 20.8908 41.972 19.7267 37.833 18.1746C42.3601 15.523 46.6931 13.3242 51.1554 13.3242ZM38.8678 8.60316C25.5454 3.17073 16.168 1.87729 10.4122 1.87729C9.95946 1.87729 9.57143 1.87729 9.24807 1.87729C4.139 2.07131 1.35811 3.17073 0.517375 3.55876L1.35811 1.35992C15.1332 -1.809 26.9035 2.45933 38.2211 6.59833C39.1911 6.92169 40.1612 7.24505 41.0666 7.63309C40.2906 7.95645 38.8678 8.60316 38.8678 8.60316ZM60.7915 11.8368C54.5184 11.8368 48.2452 9.8966 41.778 7.56841C49.2153 4.33482 56.0705 1.42459 60.7915 1.42459C64.0898 1.42459 66.7413 4.07613 66.7413 7.3744C66.7413 11.0607 63.5077 11.8368 60.7915 11.8368Z" fill="#333333"/>
</svg>
