<svg width="24" height="24" viewBox="0 0 24 24" fill="none" xmlns="http://www.w3.org/2000/svg">
<path d="M12 3.20001C8.65118 3.20001 4.30466 4.03907 4.30466 4.03907L4.29373 4.05157C2.76851 4.2955 1.59998 5.60611 1.59998 7.20001V12V12.0016V16.8V16.8016C1.60146 17.5628 1.87427 18.2986 2.36941 18.8768C2.86456 19.4549 3.5496 19.8377 4.30154 19.9563L4.30466 19.9609C4.30466 19.9609 8.65118 20.8016 12 20.8016C15.3488 20.8016 19.6953 19.9609 19.6953 19.9609L19.6968 19.9594C20.4496 19.8411 21.1354 19.458 21.631 18.8791C22.1265 18.3003 22.3992 17.5636 22.4 16.8016V16.8V12.0016V12V7.20001C22.3989 6.43851 22.1262 5.70237 21.631 5.12385C21.1359 4.54534 20.4506 4.16237 19.6984 4.04376L19.6953 4.03907C19.6953 4.03907 15.3488 3.20001 12 3.20001ZM9.59998 8.31876L16 12L9.59998 15.6813V8.31876Z" fill="#555555"/>
</svg>
