<svg width="174" height="126" viewBox="0 0 174 126" fill="none" xmlns="http://www.w3.org/2000/svg">
<g opacity="0.5">
<path d="M17.7691 123.895L45.0749 2.85285H26.1646V1.63019H75.2335L47.5202 123.895H17.7691ZM0 123.895V122.672H65.6968V123.895H0Z" fill="#343434"/>
<path d="M108.792 125.525C101.022 125.525 94.3378 123.705 88.7408 120.064C83.1438 116.423 78.8238 111.668 75.7808 105.8C72.7377 99.8766 71.2162 93.4916 71.2162 86.6448C71.2162 77.244 72.3845 68.2508 74.7211 59.6651C77.1121 51.0251 80.3725 43.0915 84.5023 35.8643C88.6864 28.5827 93.5227 22.2793 99.011 16.954C104.554 11.5744 110.504 7.41739 116.862 4.48304C123.219 1.49435 129.767 0 136.505 0C144.222 0 150.878 1.82039 156.475 5.46115C162.127 9.04758 166.447 13.8023 169.435 19.7253C172.478 25.6484 174 32.0333 174 38.8801C174 48.2809 172.832 57.3013 170.495 65.9414C168.158 74.527 164.898 82.4606 160.714 89.7422C156.53 96.9694 151.666 103.273 146.124 108.652C140.635 113.978 134.712 118.135 128.355 121.123C121.997 124.058 115.476 125.525 108.792 125.525ZM108.792 124.384C111.672 124.384 114.471 122.944 117.188 120.064C119.905 117.184 122.513 113.298 125.013 108.408C127.512 103.463 129.822 97.8932 131.941 91.6984C134.115 85.5037 136.071 79.0644 137.81 72.3806C139.549 65.6968 141.016 59.1217 142.211 52.6553C143.461 46.1888 144.412 40.2386 145.064 34.8046C145.77 29.3163 146.124 24.779 146.124 21.1925C146.124 18.3125 145.988 15.677 145.716 13.2861C145.499 10.8408 145.037 8.72154 144.33 6.92833C143.678 5.08077 142.7 3.66794 141.396 2.68982C140.146 1.65737 138.516 1.14114 136.505 1.14114C133.571 1.14114 130.745 2.55398 128.028 5.37964C125.311 8.15097 122.703 11.9548 120.204 16.791C117.704 21.5729 115.367 27.0069 113.194 33.0929C111.074 39.179 109.145 45.5368 107.407 52.1662C105.668 58.7957 104.173 65.3708 102.923 71.8916C101.728 78.358 100.777 84.3897 100.071 89.9867C99.4186 95.5837 99.0925 100.366 99.0925 104.332C99.0925 107.158 99.2012 109.794 99.4186 112.239C99.6903 114.684 100.152 116.831 100.804 118.678C101.511 120.471 102.489 121.884 103.739 122.917C105.043 123.895 106.727 124.384 108.792 124.384Z" fill="#343434"/>
</g>
</svg>
