<svg width="40" height="40" viewBox="0 0 40 40" fill="none" xmlns="http://www.w3.org/2000/svg">
<path d="M20 5C11.7285 5 5 11.7285 5 20C5 28.2715 11.7285 35 20 35C28.2715 35 35 28.2715 35 20C35 11.7285 28.2715 5 20 5ZM20 7.5C26.9189 7.5 32.5 13.0811 32.5 20C32.5 26.9189 26.9189 32.5 20 32.5C13.0811 32.5 7.5 26.9189 7.5 20C7.5 13.0811 13.0811 7.5 20 7.5ZM13.125 13.75C12.0898 13.75 11.25 14.5898 11.25 15.625C11.25 15.7422 11.2598 15.8545 11.2891 15.9766C11.3428 16.2744 11.4648 16.5283 11.6406 16.7578C12.5781 18.374 15 20 15 20C15 20 18.75 17.6172 18.75 15.625C18.75 14.5898 17.9102 13.75 16.875 13.75C15.8398 13.75 15 14.5898 15 15.625C15 14.5898 14.1602 13.75 13.125 13.75ZM23.125 13.75C22.0898 13.75 21.25 14.5898 21.25 15.625C21.25 15.7422 21.2598 15.8545 21.2891 15.9766C21.3428 16.2744 21.4648 16.5283 21.6406 16.7578C22.5781 18.374 25 20 25 20C25 20 27.4854 18.3887 28.3984 16.7188C28.5986 16.3477 28.75 15.9863 28.75 15.625C28.75 14.5898 27.9102 13.75 26.875 13.75C25.8398 13.75 25 14.5898 25 15.625C25 14.5898 24.1602 13.75 23.125 13.75ZM13.5156 23.75L11.3672 25C13.0957 27.9834 16.3086 30 20 30C23.6914 30 26.9043 27.9834 28.6328 25L26.4844 23.75C25.1855 25.9912 22.7832 27.5 20 27.5C17.2168 27.5 14.8145 25.9912 13.5156 23.75Z" fill="#E0CFBA"/>
</svg>
