<svg width="50" height="50" viewBox="0 0 50 50" fill="none" xmlns="http://www.w3.org/2000/svg">
<path d="M25 3.07031C12.4152 3.07031 2.07031 11.9254 2.07031 23C2.07031 29.4273 5.62196 35.0866 11 38.7129C10.9916 38.9285 11.0081 39.2807 10.7266 40.3242C10.3778 41.617 9.67319 43.4317 8.24023 45.4648C8.14239 45.6038 8.0845 45.7669 8.07285 45.9364C8.0612 46.1059 8.09624 46.2754 8.17416 46.4264C8.25208 46.5774 8.36989 46.7041 8.5148 46.7929C8.65971 46.8816 8.82617 46.9289 8.99609 46.9297C15.1734 46.9566 18.7488 42.9048 19.3047 42.252C21.1335 42.6591 23.0284 42.9297 25 42.9297C37.5839 42.9297 47.9297 34.0747 47.9297 23C47.9297 11.9253 37.5839 3.07031 25 3.07031ZM25 4.92969C36.7161 4.92969 46.0703 13.0887 46.0703 23C46.0703 32.9113 36.7161 41.0703 25 41.0703C22.998 41.0703 21.0635 40.8312 19.2305 40.3848C19.0588 40.3427 18.8786 40.3506 18.7112 40.4073C18.5437 40.464 18.396 40.5673 18.2852 40.7051C18.2852 40.7051 15.3949 43.9848 10.7871 44.7598C11.6201 43.2649 12.2352 41.8699 12.5215 40.8086C12.9205 39.3294 12.9258 38.3262 12.9258 38.3262C12.9258 38.1695 12.8863 38.0154 12.8108 37.8782C12.7353 37.7409 12.6264 37.6249 12.4941 37.541C7.2672 34.2276 3.92969 28.9433 3.92969 23C3.92969 13.0886 13.2828 4.92969 25 4.92969ZM14 16C13.8675 15.9981 13.7359 16.0226 13.613 16.072C13.49 16.1214 13.3781 16.1948 13.2837 16.2878C13.1893 16.3809 13.1144 16.4918 13.0632 16.614C13.0121 16.7363 12.9858 16.8675 12.9858 17C12.9858 17.1325 13.0121 17.2637 13.0632 17.386C13.1144 17.5082 13.1893 17.6191 13.2837 17.7122C13.3781 17.8052 13.49 17.8786 13.613 17.928C13.7359 17.9774 13.8675 18.0019 14 18H36C36.1325 18.0019 36.2641 17.9774 36.387 17.928C36.51 17.8786 36.6219 17.8052 36.7163 17.7122C36.8107 17.6191 36.8856 17.5082 36.9368 17.386C36.9879 17.2637 37.0142 17.1325 37.0142 17C37.0142 16.8675 36.9879 16.7363 36.9368 16.614C36.8856 16.4918 36.8107 16.3809 36.7163 16.2878C36.6219 16.1948 36.51 16.1214 36.387 16.072C36.2641 16.0226 36.1325 15.9981 36 16H14ZM10 22C9.86749 21.9981 9.73593 22.0226 9.61296 22.072C9.48999 22.1214 9.37807 22.1948 9.2837 22.2878C9.18933 22.3809 9.11439 22.4918 9.06324 22.614C9.0121 22.7363 8.98576 22.8675 8.98576 23C8.98576 23.1325 9.0121 23.2637 9.06324 23.386C9.11439 23.5082 9.18933 23.6191 9.2837 23.7122C9.37807 23.8052 9.48999 23.8786 9.61296 23.928C9.73593 23.9774 9.86749 24.0019 10 24H27C27.1325 24.0019 27.2641 23.9774 27.387 23.928C27.51 23.8786 27.6219 23.8052 27.7163 23.7122C27.8107 23.6191 27.8856 23.5082 27.9368 23.386C27.9879 23.2637 28.0142 23.1325 28.0142 23C28.0142 22.8675 27.9879 22.7363 27.9368 22.614C27.8856 22.4918 27.8107 22.3809 27.7163 22.2878C27.6219 22.1948 27.51 22.1214 27.387 22.072C27.2641 22.0226 27.1325 21.9981 27 22H10ZM33 22C32.8675 21.9981 32.7359 22.0226 32.613 22.072C32.49 22.1214 32.3781 22.1948 32.2837 22.2878C32.1893 22.3809 32.1144 22.4918 32.0632 22.614C32.0121 22.7363 31.9858 22.8675 31.9858 23C31.9858 23.1325 32.0121 23.2637 32.0632 23.386C32.1144 23.5082 32.1893 23.6191 32.2837 23.7122C32.3781 23.8052 32.49 23.8786 32.613 23.928C32.7359 23.9774 32.8675 24.0019 33 24H40C40.1325 24.0019 40.2641 23.9774 40.387 23.928C40.51 23.8786 40.6219 23.8052 40.7163 23.7122C40.8107 23.6191 40.8856 23.5082 40.9368 23.386C40.9879 23.2637 41.0142 23.1325 41.0142 23C41.0142 22.8675 40.9879 22.7363 40.9368 22.614C40.8856 22.4918 40.8107 22.3809 40.7163 22.2878C40.6219 22.1948 40.51 22.1214 40.387 22.072C40.2641 22.0226 40.1325 21.9981 40 22H33ZM14 28C13.8675 27.9981 13.7359 28.0226 13.613 28.072C13.49 28.1214 13.3781 28.1948 13.2837 28.2878C13.1893 28.3809 13.1144 28.4918 13.0632 28.614C13.0121 28.7363 12.9858 28.8675 12.9858 29C12.9858 29.1325 13.0121 29.2637 13.0632 29.386C13.1144 29.5082 13.1893 29.6191 13.2837 29.7122C13.3781 29.8052 13.49 29.8786 13.613 29.928C13.7359 29.9774 13.8675 30.0019 14 30H36C36.1325 30.0019 36.2641 29.9774 36.387 29.928C36.51 29.8786 36.6219 29.8052 36.7163 29.7122C36.8107 29.6191 36.8856 29.5082 36.9368 29.386C36.9879 29.2637 37.0142 29.1325 37.0142 29C37.0142 28.8675 36.9879 28.7363 36.9368 28.614C36.8856 28.4918 36.8107 28.3809 36.7163 28.2878C36.6219 28.1948 36.51 28.1214 36.387 28.072C36.2641 28.0226 36.1325 27.9981 36 28H14Z" fill="#DD8560"/>
</svg>
