<svg width="53" height="32" viewBox="0 0 53 32" fill="none" xmlns="http://www.w3.org/2000/svg">
<path fill-rule="evenodd" clip-rule="evenodd" d="M26.0755 28.1777C23.3137 30.5611 19.7311 31.9999 15.8163 31.9999C7.08121 31.9999 0 24.8365 0 15.9999C0 7.16342 7.08121 0 15.8163 0C19.7311 0 23.3137 1.43878 26.0755 3.82215C28.8374 1.43878 32.42 0 36.3348 0C45.0699 0 52.1511 7.16342 52.1511 15.9999C52.1511 24.8365 45.0699 31.9999 36.3348 31.9999C32.42 31.9999 28.8374 30.5611 26.0755 28.1777Z" fill="#ED0006"/>
<path fill-rule="evenodd" clip-rule="evenodd" d="M26.0756 28.1779C29.4763 25.2432 31.6327 20.8764 31.6327 16.0001C31.6327 11.1238 29.4763 6.75695 26.0756 3.82227C28.8374 1.43891 32.42 0.00012207 36.3348 0.00012207C45.0699 0.00012207 52.1511 7.16354 52.1511 16.0001C52.1511 24.8366 45.0699 32 36.3348 32C32.42 32 28.8374 30.5612 26.0756 28.1779Z" fill="#F9A000"/>
<path fill-rule="evenodd" clip-rule="evenodd" d="M26.0755 28.1777C29.4762 25.243 31.6326 20.8763 31.6326 16C31.6326 11.1237 29.4762 6.75693 26.0755 3.82225C22.6748 6.75693 20.5185 11.1237 20.5185 16C20.5185 20.8763 22.6748 25.243 26.0755 28.1777Z" fill="#FF5E00"/>
</svg>
